<?xml version="1.0" encoding="utf-8"?>
<!-- Generator: Adobe Illustrator 25.0.1, SVG Export Plug-In . SVG Version: 6.00 Build 0)  -->
<svg version="1.1" id="Layer_1" xmlns="http://www.w3.org/2000/svg" xmlns:xlink="http://www.w3.org/1999/xlink" x="0px" y="0px"
	 viewBox="0 0 400 400" style="enable-background:new 0 0 400 400;" xml:space="preserve">
<style type="text/css">
	.st0{fill:#9A1E5D;}
	.st1{fill:#FFFFFF;}
	.st2{fill:#036F74;}
</style>
<path class="st0" d="M-161.7,38.7h102v99.4h-102V38.7z"/>
<g>
	<g>
		<path class="st1" d="M282.3,109.4c0,0-55.9-7.8-66,5.4c-8.3,10.9-9.1,31.8-0.7,38c8.3,6.2,21,3.8,21,3.8s-9.4,10.9-8,12.3
			c1.5,1.5,14.1-5.4,19-9.4s28-0.2,34.7-2.5c12-4.1,19.6-21.4,16.7-33C296.1,112.3,286.6,109.7,282.3,109.4z"/>
		<path class="st2" d="M261.4,85.8c0,0,55.9-7.8,66,5.4c8.3,10.9,9.1,31.8,0.7,38c-8.3,6.2-21,3.8-21,3.8s9.4,10.9,8,12.3
			c-1.4,1.5-14.1-5.4-19-9.4s-28-0.2-34.7-2.5c-12-4.1-19.6-21.4-16.7-33S257.1,86.1,261.4,85.8z"/>
		<path class="st1" d="M300.5,107.3c0,0,4.7,2.1,2.5,3.7s-5.7,1-5.5-1S299.2,106.6,300.5,107.3z"/>
		<path class="st1" d="M291.3,107.6c0,0,3.7,2.7,0,3.9c-3.7,1.2-4.2-0.9-3.9-2S288.7,106.3,291.3,107.6z"/>
		<path class="st1" d="M281,107.2c0,0,2.5,1,2.2,2.8c-0.3,1.9-2.5,2.4-3.7,1.8s-2.7-2.3-2-3.3C278.1,107.5,279.9,106.5,281,107.2z"
			/>
	</g>
</g>
<g>
	<path class="st1" d="M60.6,153.8c0,4.9-1.3,8.7-4,11.3c-2.7,2.6-6.5,4-11.4,4h-9.5v-29.3h10.1c4.7,0,8.3,1.2,10.9,3.6
		C59.4,145.8,60.6,149.3,60.6,153.8z M52.4,154.1c0-2.7-0.5-4.7-1.6-6c-1.1-1.3-2.7-1.9-4.8-1.9h-2.3v16.4h1.8
		c2.4,0,4.2-0.7,5.3-2.1C51.9,159.1,52.4,157,52.4,154.1z"/>
	<path class="st1" d="M80.2,169.1l-1.5-3h-0.2c-1.1,1.3-2.1,2.2-3.2,2.7c-1.1,0.5-2.5,0.7-4.2,0.7c-2.1,0-3.8-0.6-5.1-1.9
		s-1.8-3.1-1.8-5.4c0-2.4,0.8-4.2,2.5-5.4s4.1-1.8,7.3-2l3.8-0.1v-0.3c0-1.9-0.9-2.8-2.8-2.8c-1.7,0-3.8,0.6-6.3,1.7l-2.3-5.2
		c2.6-1.4,6-2,10-2c2.9,0,5.2,0.7,6.8,2.2s2.4,3.5,2.4,6.1v14.9H80.2z M74.4,164c0.9,0,1.8-0.3,2.4-0.9c0.7-0.6,1-1.4,1-2.3V159
		l-1.8,0.1c-2.6,0.1-3.9,1-3.9,2.8C72.2,163.3,73,164,74.4,164z"/>
	<path class="st1" d="M88.3,146.4h8.3l3.8,13c0.2,0.7,0.3,1.5,0.4,2.5h0.2c0.1-0.9,0.3-1.7,0.5-2.4l3.9-13.1h8l-9,24.2
		c-1.1,3.1-2.6,5.2-4.2,6.5c-1.7,1.3-3.9,1.9-6.6,1.9c-1,0-2.1-0.1-3.2-0.3v-6.2c0.7,0.2,1.5,0.2,2.4,0.2c0.7,0,1.3-0.1,1.8-0.4
		c0.5-0.3,1-0.6,1.4-1.1c0.4-0.5,0.8-1.3,1.2-2.4L88.3,146.4z"/>
	<path class="st1" d="M137.3,149.9c1.7,0,3.2,0.4,4.6,1.2s2.4,1.9,3.2,3.3s1.1,3.1,1.1,5c0,3.3-1,5.8-3,7.5c-2,1.8-5,2.6-8.9,2.6
		c-3.4,0-6.2-0.5-8.4-1.6v-6.5c1.2,0.5,2.5,1,3.9,1.3c1.5,0.3,2.7,0.5,3.8,0.5c1.5,0,2.6-0.3,3.4-0.9c0.8-0.6,1.2-1.5,1.2-2.8
		c0-1.1-0.4-2-1.2-2.6c-0.8-0.6-2-0.9-3.6-0.9c-1.2,0-2.6,0.2-4,0.7l-2.9-1.4l1.1-15.5h16.7v6.6h-10l-0.4,3.9c1-0.2,1.8-0.3,2.2-0.3
		C136.5,149.9,136.9,149.9,137.3,149.9z"/>
	<path class="st1" d="M35.8,218.4v-29.3h7.9V212H55v6.4H35.8z"/>
	<path class="st1" d="M59,190c0-1.2,0.3-2.1,1-2.6c0.7-0.6,1.7-0.9,3.2-0.9c1.5,0,2.5,0.3,3.2,0.9c0.7,0.6,1,1.5,1,2.6
		c0,2.3-1.4,3.4-4.2,3.4C60.4,193.5,59,192.3,59,190z M67.1,218.4h-7.8v-22.7h7.8V218.4z"/>
	<path class="st1" d="M78.5,218.4l-8.7-22.7H78l3.8,13.4c0,0.1,0,0.2,0.1,0.3s0.1,0.4,0.1,0.6s0.1,0.5,0.1,0.7c0,0.2,0,0.5,0,0.7
		h0.1c0-0.7,0.1-1.4,0.4-2.3l4-13.5h8.2l-8.7,22.7H78.5z"/>
	<path class="st1" d="M108.6,218.8c-3.8,0-6.7-1-8.8-3c-2.1-2-3.1-4.9-3.1-8.6c0-3.8,1-6.8,2.9-8.8c1.9-2.1,4.7-3.1,8.3-3.1
		c3.4,0,6.1,0.9,7.9,2.7s2.8,4.4,2.8,7.7v3.5h-14c0.1,1.3,0.5,2.3,1.4,3s2.1,1.1,3.6,1.1c1.4,0,2.6-0.1,3.8-0.4
		c1.2-0.3,2.4-0.7,3.8-1.3v5.6c-1.2,0.6-2.5,1.1-3.8,1.3S110.4,218.8,108.6,218.8z M108.1,200.6c-0.9,0-1.7,0.3-2.3,0.9
		c-0.6,0.6-1,1.5-1.1,2.7h6.7c0-1.1-0.3-2-0.9-2.6C109.9,200.9,109.1,200.6,108.1,200.6z"/>
	<path class="st1" d="M159,203.1c0,4.9-1.3,8.7-4,11.3c-2.7,2.6-6.5,4-11.4,4h-9.5v-29.3h10.1c4.7,0,8.3,1.2,10.9,3.6
		C157.7,195.1,159,198.6,159,203.1z M150.8,203.4c0-2.7-0.5-4.7-1.6-6c-1.1-1.3-2.7-1.9-4.8-1.9H142v16.4h1.8c2.4,0,4.2-0.7,5.3-2.1
		S150.8,206.2,150.8,203.4z"/>
	<path class="st1" d="M163.6,190c0-1.2,0.3-2.1,1-2.6c0.7-0.6,1.7-0.9,3.2-0.9c1.5,0,2.5,0.3,3.2,0.9c0.7,0.6,1,1.5,1,2.6
		c0,2.3-1.4,3.4-4.2,3.4C165,193.5,163.6,192.3,163.6,190z M171.7,218.4h-7.8v-22.7h7.8V218.4z"/>
	<path class="st1" d="M194.7,211.4c0,2.4-0.8,4.3-2.5,5.5c-1.7,1.2-4,1.9-7.1,1.9c-1.7,0-3.1-0.1-4.4-0.3c-1.2-0.2-2.5-0.5-3.8-1
		v-6.3c1.2,0.5,2.5,1,4,1.3s2.7,0.5,3.9,0.5c1.7,0,2.5-0.4,2.5-1.2c0-0.4-0.2-0.8-0.7-1.1c-0.5-0.3-1.9-0.9-4.1-1.8
		c-2.1-0.9-3.5-1.8-4.4-2.9c-0.8-1.1-1.2-2.5-1.2-4.1c0-2.1,0.8-3.8,2.4-4.9c1.6-1.2,3.9-1.8,6.9-1.8c1.5,0,2.9,0.2,4.2,0.5
		s2.7,0.8,4.1,1.4l-2.1,5.1c-1-0.5-2.1-0.9-3.3-1.2c-1.2-0.3-2.1-0.5-2.8-0.5c-1.3,0-1.9,0.3-1.9,0.9c0,0.4,0.2,0.7,0.7,1
		c0.4,0.3,1.7,0.8,3.9,1.7c1.6,0.7,2.8,1.3,3.6,1.9c0.8,0.6,1.4,1.4,1.7,2.2C194.5,209.1,194.7,210.2,194.7,211.4z"/>
	<path class="st1" d="M209.4,218.8c-3.7,0-6.5-1-8.4-3c-1.9-2-2.9-4.9-2.9-8.6c0-3.8,1-6.7,3.1-8.8c2.1-2.1,5-3.1,8.8-3.1
		c2.6,0,5.1,0.6,7.4,1.7l-2.3,5.8c-0.9-0.4-1.8-0.7-2.6-1s-1.6-0.4-2.5-0.4c-1.3,0-2.3,0.5-2.9,1.5c-0.7,1-1,2.4-1,4.2
		c0,3.6,1.3,5.5,4,5.5c2.3,0,4.5-0.7,6.6-2v6.2C214.6,218.1,212.2,218.8,209.4,218.8z"/>
	<path class="st1" d="M237.3,218.4l-1-2.8h-0.5c-0.7,1-1.6,1.8-2.7,2.4c-1.2,0.6-2.5,0.8-4.1,0.8c-2.5,0-4.4-0.7-5.8-2.2
		c-1.4-1.5-2.1-3.5-2.1-6.1v-14.8h7.8v12.4c0,1.5,0.2,2.6,0.6,3.4s1.1,1.1,2.1,1.1c1.3,0,2.3-0.5,2.9-1.6c0.6-1.1,0.9-2.9,0.9-5.4
		v-9.9h7.8v22.7H237.3z"/>
	<path class="st1" d="M266.2,211.4c0,2.4-0.8,4.3-2.5,5.5c-1.7,1.2-4,1.9-7.1,1.9c-1.7,0-3.1-0.1-4.4-0.3c-1.2-0.2-2.5-0.5-3.8-1
		v-6.3c1.2,0.5,2.5,1,4,1.3s2.7,0.5,3.9,0.5c1.7,0,2.5-0.4,2.5-1.2c0-0.4-0.2-0.8-0.7-1.1c-0.5-0.3-1.9-0.9-4.1-1.8
		c-2.1-0.9-3.5-1.8-4.4-2.9c-0.8-1.1-1.2-2.5-1.2-4.1c0-2.1,0.8-3.8,2.4-4.9c1.6-1.2,3.9-1.8,6.9-1.8c1.5,0,2.9,0.2,4.2,0.5
		s2.7,0.8,4.1,1.4l-2.1,5.1c-1-0.5-2.1-0.9-3.3-1.2c-1.2-0.3-2.1-0.5-2.8-0.5c-1.3,0-1.9,0.3-1.9,0.9c0,0.4,0.2,0.7,0.7,1
		c0.4,0.3,1.7,0.8,3.9,1.7c1.6,0.7,2.8,1.3,3.6,1.9c0.8,0.6,1.4,1.4,1.7,2.2C266,209.1,266.2,210.2,266.2,211.4z"/>
	<path class="st1" d="M288.1,211.4c0,2.4-0.8,4.3-2.5,5.5c-1.7,1.2-4,1.9-7.1,1.9c-1.7,0-3.1-0.1-4.4-0.3c-1.2-0.2-2.5-0.5-3.8-1
		v-6.3c1.2,0.5,2.5,1,4,1.3s2.7,0.5,3.9,0.5c1.7,0,2.5-0.4,2.5-1.2c0-0.4-0.2-0.8-0.7-1.1c-0.5-0.3-1.9-0.9-4.1-1.8
		c-2.1-0.9-3.5-1.8-4.4-2.9c-0.8-1.1-1.2-2.5-1.2-4.1c0-2.1,0.8-3.8,2.4-4.9c1.6-1.2,3.9-1.8,6.9-1.8c1.5,0,2.9,0.2,4.2,0.5
		s2.7,0.8,4.1,1.4l-2.1,5.1c-1-0.5-2.1-0.9-3.3-1.2c-1.2-0.3-2.1-0.5-2.8-0.5c-1.3,0-1.9,0.3-1.9,0.9c0,0.4,0.2,0.7,0.7,1
		c0.4,0.3,1.7,0.8,3.9,1.7c1.6,0.7,2.8,1.3,3.6,1.9c0.8,0.6,1.4,1.4,1.7,2.2C287.9,209.1,288.1,210.2,288.1,211.4z"/>
	<path class="st1" d="M292.3,190c0-1.2,0.3-2.1,1-2.6c0.7-0.6,1.7-0.9,3.2-0.9c1.5,0,2.5,0.3,3.2,0.9c0.7,0.6,1,1.5,1,2.6
		c0,2.3-1.4,3.4-4.2,3.4C293.7,193.5,292.3,192.3,292.3,190z M300.3,218.4h-7.8v-22.7h7.8V218.4z"/>
	<path class="st1" d="M327.5,207c0,3.7-1,6.6-3,8.7c-2,2.1-4.8,3.1-8.4,3.1c-3.4,0-6.2-1.1-8.2-3.2s-3.1-5-3.1-8.6
		c0-3.7,1-6.6,3-8.6c2-2.1,4.8-3.1,8.4-3.1c2.2,0,4.2,0.5,5.9,1.4c1.7,0.9,3,2.3,4,4.1C327,202.5,327.5,204.6,327.5,207z M312.8,207
		c0,2,0.3,3.4,0.8,4.5s1.4,1.5,2.6,1.5c1.2,0,2.1-0.5,2.6-1.5s0.8-2.5,0.8-4.5c0-1.9-0.3-3.4-0.8-4.4c-0.5-1-1.4-1.5-2.6-1.5
		c-1.2,0-2.1,0.5-2.6,1.5S312.8,205,312.8,207z"/>
	<path class="st1" d="M346.3,218.4V206c0-1.5-0.2-2.6-0.7-3.4s-1.1-1.2-2.1-1.2c-1.3,0-2.3,0.5-2.9,1.6c-0.6,1.1-0.9,2.9-0.9,5.4
		v9.9h-7.8v-22.7h5.9l1,2.8h0.5c0.7-1.1,1.6-1.9,2.8-2.4s2.5-0.8,4.1-0.8c2.5,0,4.5,0.7,5.9,2.2c1.4,1.5,2.1,3.5,2.1,6.2v14.8H346.3
		z"/>
	<path class="st1" d="M41.5,255.8H34v-5.4h7.5v-7.4h5.4v7.4h7.5v5.4h-7.5v7.2h-5.4V255.8z"/>
	<path class="st1" d="M97.1,252.9c0,6.6-2.1,11.1-6.3,13.4l7.2,8.2H88l-5.2-6.5l0,0v0l0,0c-4.6,0-8.1-1.3-10.6-3.9
		c-2.5-2.6-3.7-6.3-3.7-11.3c0-4.9,1.2-8.6,3.7-11.2s6-3.9,10.6-3.9c4.7,0,8.2,1.3,10.6,3.8S97.1,248,97.1,252.9z M76.9,252.9
		c0,5.7,2,8.5,5.9,8.5c2,0,3.5-0.7,4.5-2.1c1-1.4,1.5-3.5,1.5-6.4c0-2.9-0.5-5.1-1.5-6.5c-1-1.4-2.4-2.1-4.4-2.1
		C78.9,244.4,76.9,247.2,76.9,252.9z"/>
	<path class="st1" d="M122.1,267.6l-2-2c-1.2,0.8-2.2,1.3-3,1.6s-1.6,0.5-2.6,0.7c-1,0.1-2,0.2-3.3,0.2c-2.1,0-4-0.4-5.6-1.1
		c-1.6-0.7-2.9-1.7-3.7-3c-0.9-1.3-1.3-2.8-1.3-4.4c0-3.5,1.8-6.2,5.5-8c-0.8-0.9-1.5-1.9-1.9-3c-0.5-1-0.7-2.2-0.7-3.6
		c0-2.1,0.8-3.8,2.5-5.1c1.6-1.3,3.9-1.9,6.8-1.9c2.8,0,5,0.6,6.6,1.9c1.6,1.2,2.4,2.9,2.4,5.1c0,1.5-0.4,2.9-1.3,4.1
		c-0.8,1.3-2.2,2.4-4,3.6l4,3.8c1-1.5,1.7-3.3,2.1-5.2h8.1c-0.4,1.8-1,3.7-1.9,5.5c-0.9,1.9-1.8,3.4-2.9,4.8l6.4,6.2H122.1z
		 M108.7,258.9c0,0.8,0.3,1.5,0.9,2.1c0.6,0.5,1.4,0.8,2.4,0.8c0.8,0,1.4-0.1,2-0.3c0.6-0.2,1-0.4,1.3-0.7l-5-5.1
		C109.3,256.6,108.7,257.6,108.7,258.9z M114.6,244.9c0-0.7-0.2-1.1-0.6-1.4c-0.4-0.3-0.9-0.4-1.4-0.4c-0.6,0-1.1,0.2-1.5,0.5
		s-0.6,0.9-0.6,1.6c0,1,0.6,2,1.8,3.1c0.8-0.4,1.3-0.9,1.7-1.5C114.4,246.2,114.6,245.5,114.6,244.9z"/>
	<path class="st1" d="M153.1,267.6l-1.4-5.5h-9.5l-1.5,5.5H132l9.6-29.4h10.6l9.7,29.4H153.1z M150.1,255.6l-1.3-4.8
		c-0.3-1.1-0.7-2.5-1.1-4.1c-0.4-1.7-0.7-2.9-0.8-3.6c-0.1,0.7-0.4,1.8-0.7,3.4c-0.4,1.6-1.1,4.6-2.4,9.2H150.1z"/>
</g>
</svg>
