<?xml version="1.0" encoding="utf-8"?>
<!-- Generator: Adobe Illustrator 25.0.1, SVG Export Plug-In . SVG Version: 6.00 Build 0)  -->
<svg version="1.1" id="Layer_1" xmlns="http://www.w3.org/2000/svg" xmlns:xlink="http://www.w3.org/1999/xlink" x="0px" y="0px"
	 viewBox="0 0 750 249.2" style="enable-background:new 0 0 750 249.2;" xml:space="preserve">
<style type="text/css">
	.st0{fill:#9B0E5B;}
	.st1{fill:#FFFFFF;}
	.st2{fill:#006F74;}
</style>
<path class="st0" d="M-286.3-209h112v97.1h-112V-209z"/>
<g>
	<path class="st1" d="M157.3,104.3c0,0-67.1-9.4-79.3,6.5c-10,13.1-10.9,38.2-0.9,45.6s25.3,4.5,25.3,4.5s-11.3,13.1-9.6,14.8
		c1.7,1.7,16.9-6.5,22.8-11.3c5.9-4.8,33.6-0.3,41.6-3.1c14.4-5,23.5-25.7,20-39.7C173.9,107.8,162.5,104.6,157.3,104.3z"/>
	<path class="st2" d="M132.3,75.9c0,0,67.1-9.4,79.3,6.5c10,13.1,10.9,38.2,0.9,45.6s-25.3,4.5-25.3,4.5s11.3,13.1,9.6,14.8
		s-16.9-6.5-22.8-11.3c-5.9-4.8-33.6-0.3-41.6-3.1c-14.4-5-23.5-25.7-20-39.7S127.1,76.3,132.3,75.9z"/>
	<path class="st1" d="M179.2,101.7c0,0,5.6,2.5,3,4.4s-6.9,1.3-6.7-1.2C175.8,102.5,177.6,100.9,179.2,101.7z"/>
	<path class="st1" d="M168.1,102c0,0,4.4,3.3,0,4.7s-5-1.1-4.6-2.3C163.9,103.1,165.1,100.6,168.1,102z"/>
	<path class="st1" d="M155.8,101.6c0,0,3,1.2,2.6,3.4c-0.4,2.2-3,2.9-4.4,2.2s-3.2-2.8-2.4-4C152.4,102,154.4,100.8,155.8,101.6z"/>
</g>
<g>
	<path class="st1" d="M329.2,60.3c0,5.9-1.6,10.5-4.9,13.7c-3.3,3.2-7.9,4.8-13.8,4.8H299V43.2h12.3c5.7,0,10.1,1.5,13.2,4.4
		C327.6,50.5,329.2,54.8,329.2,60.3z M319.2,60.6c0-3.3-0.6-5.7-1.9-7.3c-1.3-1.6-3.2-2.4-5.9-2.4h-2.8v19.9h2.1
		c2.9,0,5.1-0.8,6.4-2.5C318.5,66.7,319.2,64.1,319.2,60.6z"/>
	<path class="st1" d="M353,78.8l-1.8-3.7H351c-1.3,1.6-2.6,2.7-3.9,3.3c-1.3,0.6-3.1,0.9-5.2,0.9c-2.6,0-4.6-0.8-6.1-2.3
		c-1.5-1.6-2.2-3.7-2.2-6.6c0-2.9,1-5.1,3.1-6.6c2-1.4,5-2.2,8.9-2.4l4.6-0.1v-0.4c0-2.3-1.1-3.4-3.4-3.4c-2,0-4.6,0.7-7.7,2
		l-2.8-6.3c3.2-1.7,7.3-2.5,12.2-2.5c3.5,0,6.3,0.9,8.2,2.6c1.9,1.8,2.9,4.2,2.9,7.4v18.1H353z M345.9,72.6c1.2,0,2.1-0.4,3-1.1
		c0.8-0.7,1.2-1.7,1.2-2.8v-2.1l-2.2,0.1c-3.1,0.1-4.7,1.3-4.7,3.5C343.2,71.8,344.1,72.6,345.9,72.6z"/>
	<path class="st1" d="M362.7,51.3h10l4.7,15.8c0.2,0.8,0.4,1.8,0.5,3h0.2c0.1-1.1,0.3-2.1,0.6-2.9l4.8-15.9h9.7l-10.9,29.3
		c-1.4,3.7-3.1,6.4-5.1,7.9c-2,1.5-4.7,2.3-8,2.3c-1.3,0-2.6-0.1-3.9-0.4v-7.5c0.9,0.2,1.8,0.3,2.9,0.3c0.8,0,1.6-0.2,2.2-0.5
		c0.6-0.3,1.2-0.8,1.7-1.4c0.5-0.6,1-1.6,1.5-2.9L362.7,51.3z"/>
	<path class="st1" d="M432.3,51c0,2.2-0.7,4.1-2,5.7c-1.3,1.6-3.3,2.7-5.8,3.4v0.1c5.9,0.7,8.9,3.6,8.9,8.4c0,3.3-1.3,5.9-3.9,7.8
		s-6.3,2.8-10.9,2.8c-1.9,0-3.7-0.1-5.3-0.4c-1.6-0.3-3.4-0.8-5.3-1.5v-8c1.6,0.8,3.1,1.4,4.8,1.8s3.1,0.6,4.5,0.6
		c2.1,0,3.6-0.3,4.6-0.9s1.4-1.5,1.4-2.8c0-1-0.3-1.7-0.8-2.3s-1.3-0.9-2.4-1.2c-1.1-0.3-2.6-0.4-4.4-0.4h-2.2V57h2.2
		c4.9,0,7.3-1.2,7.3-3.7c0-0.9-0.4-1.6-1.1-2.1c-0.7-0.5-1.7-0.7-2.9-0.7c-2.3,0-4.6,0.8-7.1,2.3l-4-6.4c1.9-1.3,3.8-2.2,5.8-2.8
		c2-0.6,4.2-0.8,6.8-0.8c3.7,0,6.6,0.7,8.7,2.2C431.2,46.4,432.3,48.4,432.3,51z"/>
	<path class="st1" d="M299,138.7v-35.6h9.6v27.8h13.7v7.8H299z"/>
	<path class="st1" d="M327.3,104.2c0-1.4,0.4-2.5,1.2-3.2c0.8-0.7,2.1-1,3.8-1s3.1,0.4,3.9,1.1c0.8,0.7,1.2,1.8,1.2,3.2
		c0,2.8-1.7,4.2-5.1,4.2C328.9,108.4,327.3,107,327.3,104.2z M337,138.7h-9.5v-27.6h9.5V138.7z"/>
	<path class="st1" d="M350.9,138.7l-10.5-27.6h9.9l4.7,16.3c0,0.1,0,0.2,0.1,0.4c0,0.2,0.1,0.4,0.1,0.7s0.1,0.6,0.1,0.9
		c0,0.3,0.1,0.6,0.1,0.8h0.2c0-0.8,0.1-1.8,0.4-2.8l4.9-16.4h9.9l-10.5,27.6H350.9z"/>
	<path class="st1" d="M387.4,139.1c-4.6,0-8.2-1.2-10.7-3.7s-3.8-5.9-3.8-10.4c0-4.7,1.2-8.2,3.5-10.7c2.4-2.5,5.7-3.7,10.1-3.7
		c4.2,0,7.4,1.1,9.6,3.2c2.3,2.2,3.4,5.3,3.4,9.4v4.2h-17c0.1,1.5,0.6,2.8,1.7,3.6c1.1,0.9,2.5,1.3,4.3,1.3c1.7,0,3.2-0.2,4.6-0.5
		s2.9-0.9,4.6-1.6v6.8c-1.5,0.8-3,1.3-4.6,1.6C391.5,139,389.6,139.1,387.4,139.1z M386.9,117.1c-1.1,0-2.1,0.4-2.8,1.1
		c-0.8,0.7-1.2,1.8-1.3,3.3h8.2c0-1.3-0.4-2.4-1.1-3.2C389.1,117.5,388.1,117.1,386.9,117.1z"/>
	<path class="st1" d="M448.7,120.1c0,5.9-1.6,10.5-4.9,13.7c-3.3,3.2-7.9,4.8-13.8,4.8h-11.5v-35.6h12.3c5.7,0,10.1,1.5,13.2,4.4
		C447.1,110.4,448.7,114.6,448.7,120.1z M438.7,120.4c0-3.3-0.6-5.7-1.9-7.3c-1.3-1.6-3.2-2.4-5.9-2.4h-2.8v19.9h2.1
		c2.9,0,5.1-0.8,6.4-2.5C438,126.5,438.7,123.9,438.7,120.4z"/>
	<path class="st1" d="M454.3,104.2c0-1.4,0.4-2.5,1.2-3.2c0.8-0.7,2.1-1,3.8-1c1.8,0,3.1,0.4,3.9,1.1c0.8,0.7,1.2,1.8,1.2,3.2
		c0,2.8-1.7,4.2-5.1,4.2C456,108.4,454.3,107,454.3,104.2z M464,138.7h-9.5v-27.6h9.5V138.7z"/>
	<path class="st1" d="M492,130.2c0,3-1,5.2-3,6.7c-2,1.5-4.9,2.3-8.7,2.3c-2,0-3.8-0.1-5.3-0.3c-1.5-0.2-3.1-0.6-4.6-1.2V130
		c1.5,0.6,3.1,1.2,4.9,1.6s3.3,0.6,4.7,0.6c2.1,0,3.1-0.5,3.1-1.4c0-0.5-0.3-0.9-0.9-1.3s-2.3-1.1-5-2.2c-2.5-1-4.3-2.2-5.3-3.5
		c-1-1.3-1.5-3-1.5-5c0-2.6,1-4.6,3-6c2-1.4,4.8-2.1,8.4-2.1c1.8,0,3.5,0.2,5.1,0.6c1.6,0.4,3.3,1,5,1.7l-2.6,6.1
		c-1.3-0.6-2.6-1.1-4-1.4c-1.4-0.4-2.6-0.6-3.5-0.6c-1.6,0-2.3,0.4-2.3,1.1c0,0.5,0.3,0.9,0.8,1.2c0.5,0.3,2.1,1,4.7,2
		c1.9,0.8,3.4,1.6,4.3,2.3c0.9,0.8,1.6,1.7,2.1,2.7C491.8,127.5,492,128.7,492,130.2z"/>
	<path class="st1" d="M509.8,139.1c-4.5,0-7.9-1.2-10.3-3.7c-2.3-2.4-3.5-5.9-3.5-10.5c0-4.6,1.3-8.1,3.8-10.6
		c2.5-2.5,6.1-3.8,10.7-3.8c3.2,0,6.2,0.7,9,2.1l-2.8,7c-1.2-0.5-2.2-0.9-3.2-1.2s-2-0.5-3-0.5c-1.5,0-2.7,0.6-3.6,1.8
		c-0.8,1.2-1.3,2.9-1.3,5.1c0,4.4,1.6,6.6,4.9,6.6c2.8,0,5.5-0.8,8-2.4v7.6C516.2,138.3,513.3,139.1,509.8,139.1z"/>
	<path class="st1" d="M543.8,138.7l-1.2-3.4H542c-0.8,1.3-1.9,2.2-3.3,2.9s-3.1,1-5,1c-3,0-5.4-0.9-7.1-2.6
		c-1.7-1.8-2.5-4.2-2.5-7.5v-18h9.5v15.1c0,1.8,0.3,3.2,0.8,4.1c0.5,0.9,1.4,1.4,2.5,1.4c1.6,0,2.8-0.6,3.5-1.9c0.7-1.3,1-3.5,1-6.5
		v-12.1h9.5v27.6H543.8z"/>
	<path class="st1" d="M578.8,130.2c0,3-1,5.2-3,6.7c-2,1.5-4.9,2.3-8.7,2.3c-2,0-3.8-0.1-5.3-0.3c-1.5-0.2-3.1-0.6-4.6-1.2V130
		c1.5,0.6,3.1,1.2,4.9,1.6s3.3,0.6,4.7,0.6c2.1,0,3.1-0.5,3.1-1.4c0-0.5-0.3-0.9-0.9-1.3s-2.3-1.1-5-2.2c-2.5-1-4.3-2.2-5.3-3.5
		c-1-1.3-1.5-3-1.5-5c0-2.6,1-4.6,3-6c2-1.4,4.8-2.1,8.4-2.1c1.8,0,3.5,0.2,5.1,0.6c1.6,0.4,3.3,1,5,1.7l-2.6,6.1
		c-1.3-0.6-2.6-1.1-4-1.4c-1.4-0.4-2.6-0.6-3.5-0.6c-1.6,0-2.3,0.4-2.3,1.1c0,0.5,0.3,0.9,0.8,1.2c0.5,0.3,2.1,1,4.7,2
		c1.9,0.8,3.4,1.6,4.3,2.3c0.9,0.8,1.6,1.7,2.1,2.7C578.6,127.5,578.8,128.7,578.8,130.2z"/>
	<path class="st1" d="M605.4,130.2c0,3-1,5.2-3,6.7c-2,1.5-4.9,2.3-8.7,2.3c-2,0-3.8-0.1-5.3-0.3c-1.5-0.2-3.1-0.6-4.6-1.2V130
		c1.5,0.6,3.1,1.2,4.9,1.6s3.3,0.6,4.7,0.6c2.1,0,3.1-0.5,3.1-1.4c0-0.5-0.3-0.9-0.9-1.3s-2.3-1.1-5-2.2c-2.5-1-4.3-2.2-5.3-3.5
		c-1-1.3-1.5-3-1.5-5c0-2.6,1-4.6,3-6c2-1.4,4.8-2.1,8.4-2.1c1.8,0,3.5,0.2,5.1,0.6c1.6,0.4,3.3,1,5,1.7l-2.6,6.1
		c-1.3-0.6-2.6-1.1-4-1.4c-1.4-0.4-2.6-0.6-3.5-0.6c-1.6,0-2.3,0.4-2.3,1.1c0,0.5,0.3,0.9,0.8,1.2c0.5,0.3,2.1,1,4.7,2
		c1.9,0.8,3.4,1.6,4.3,2.3c0.9,0.8,1.6,1.7,2.1,2.7C605.2,127.5,605.4,128.7,605.4,130.2z"/>
	<path class="st1" d="M610.5,104.2c0-1.4,0.4-2.5,1.2-3.2c0.8-0.7,2.1-1,3.8-1c1.8,0,3.1,0.4,3.9,1.1c0.8,0.7,1.2,1.8,1.2,3.2
		c0,2.8-1.7,4.2-5.1,4.2C612.2,108.4,610.5,107,610.5,104.2z M620.3,138.7h-9.5v-27.6h9.5V138.7z"/>
	<path class="st1" d="M653.3,124.8c0,4.5-1.2,8-3.6,10.6c-2.4,2.5-5.8,3.8-10.2,3.8c-4.2,0-7.5-1.3-10-3.9s-3.7-6.1-3.7-10.5
		c0-4.5,1.2-8,3.6-10.5c2.4-2.5,5.8-3.7,10.2-3.7c2.7,0,5.1,0.6,7.2,1.7c2.1,1.2,3.7,2.8,4.8,5S653.3,121.9,653.3,124.8z
		 M635.4,124.8c0,2.4,0.3,4.2,0.9,5.4c0.6,1.2,1.7,1.9,3.2,1.9c1.5,0,2.5-0.6,3.1-1.9c0.6-1.2,0.9-3,0.9-5.4c0-2.4-0.3-4.1-0.9-5.3
		c-0.6-1.2-1.7-1.8-3.2-1.8c-1.5,0-2.5,0.6-3.1,1.8S635.4,122.4,635.4,124.8z"/>
	<path class="st1" d="M676.1,138.7v-15c0-1.8-0.3-3.2-0.8-4.2s-1.4-1.4-2.5-1.4c-1.6,0-2.8,0.6-3.5,1.9c-0.7,1.3-1.1,3.5-1.1,6.6
		v12.1h-9.5v-27.6h7.2l1.2,3.4h0.6c0.8-1.3,1.9-2.3,3.4-2.9c1.4-0.6,3.1-1,5-1c3.1,0,5.4,0.9,7.1,2.7c1.7,1.8,2.5,4.3,2.5,7.5v17.9
		H676.1z"/>
	<path class="st1" d="M306,184.2h-9.1v-6.5h9.1v-8.9h6.5v8.9h9.1v6.5h-9.1v8.8H306V184.2z"/>
	<path class="st1" d="M373.5,180.6c0,8.1-2.6,13.5-7.7,16.3l8.7,10h-12l-6.3-7.9l0,0v0l0,0c-5.6,0-9.9-1.6-12.8-4.7
		s-4.5-7.7-4.5-13.7c0-5.9,1.5-10.4,4.4-13.6c3-3.1,7.3-4.7,12.9-4.7c5.7,0,10,1.5,12.9,4.6C372,170.1,373.5,174.6,373.5,180.6z
		 M349,180.6c0,6.9,2.4,10.3,7.2,10.3c2.4,0,4.2-0.8,5.4-2.5c1.2-1.7,1.8-4.3,1.8-7.8c0-3.6-0.6-6.2-1.8-7.9c-1.2-1.7-3-2.5-5.3-2.5
		C351.4,170.2,349,173.7,349,180.6z"/>
	<path class="st1" d="M403.8,198.5l-2.4-2.5c-1.5,0.9-2.7,1.6-3.6,1.9c-0.9,0.3-2,0.6-3.1,0.8c-1.2,0.2-2.5,0.3-4,0.3
		c-2.6,0-4.8-0.4-6.8-1.3c-2-0.9-3.5-2.1-4.5-3.7c-1-1.6-1.6-3.4-1.6-5.4c0-4.3,2.2-7.5,6.6-9.8c-1-1.1-1.8-2.3-2.3-3.6
		c-0.6-1.3-0.8-2.7-0.8-4.3c0-2.6,1-4.7,3-6.2c2-1.5,4.8-2.3,8.3-2.3c3.4,0,6.1,0.8,8,2.3s2.9,3.6,2.9,6.2c0,1.8-0.5,3.5-1.5,5
		c-1,1.5-2.7,3-4.9,4.3l4.8,4.6c1.2-1.9,2.1-4,2.5-6.3h9.9c-0.5,2.2-1.3,4.5-2.3,6.7c-1,2.2-2.2,4.2-3.5,5.8l7.8,7.5H403.8z
		 M387.6,187.9c0,1,0.4,1.9,1.1,2.5c0.7,0.6,1.7,1,2.9,1c0.9,0,1.7-0.1,2.4-0.4c0.7-0.2,1.2-0.5,1.6-0.8l-6-6.1
		C388.3,185.1,387.6,186.3,387.6,187.9z M394.8,170.9c0-0.8-0.2-1.4-0.7-1.7c-0.5-0.3-1-0.5-1.7-0.5c-0.7,0-1.3,0.2-1.8,0.6
		c-0.5,0.4-0.8,1.1-0.8,1.9c0,1.2,0.7,2.5,2.1,3.8c0.9-0.5,1.6-1.1,2.1-1.9C394.5,172.4,394.8,171.7,394.8,170.9z"/>
	<path class="st1" d="M441.5,198.5l-1.8-6.7h-11.6l-1.8,6.7h-10.6l11.6-35.7h12.8l11.8,35.7H441.5z M437.8,183.9l-1.5-5.8
		c-0.4-1.3-0.8-3-1.3-5c-0.5-2.1-0.8-3.5-1-4.4c-0.1,0.8-0.4,2.2-0.9,4.1c-0.4,1.9-1.4,5.6-2.9,11.2H437.8z"/>
</g>
</svg>
