<?xml version="1.0" encoding="utf-8"?>
<!-- Generator: Adobe Illustrator 25.0.1, SVG Export Plug-In . SVG Version: 6.00 Build 0)  -->
<svg version="1.1" id="Layer_1" xmlns="http://www.w3.org/2000/svg" xmlns:xlink="http://www.w3.org/1999/xlink" x="0px" y="0px"
	 viewBox="0 0 651.4 370.7" style="enable-background:new 0 0 651.4 370.7;" xml:space="preserve">
<style type="text/css">
	.st0{clip-path:url(#SVGID_2_);fill:#FFFFFF;}
	.st1{clip-path:url(#SVGID_4_);fill:#9B0E5B;}
	.st2{opacity:0.2392;clip-path:url(#SVGID_4_);enable-background:new    ;}
	.st3{clip-path:url(#SVGID_6_);}
	.st4{clip-path:url(#SVGID_10_);fill:#FFFFFF;}
	.st5{clip-path:url(#SVGID_10_);}
	.st6{fill:#FFFFFF;}
	.st7{clip-path:url(#SVGID_12_);}
	.st8{clip-path:url(#SVGID_14_);}
	.st9{clip-path:url(#SVGID_16_);}
	.st10{clip-path:url(#SVGID_20_);}
</style>
<g>
	
		<image style="overflow:visible;" width="1861" height="1221" xlink:href="6EC60AD5.jpg"  transform="matrix(0.5998 0 0 -0.5999 -1200.1566 200.1503)">
	</image>
</g>
<g>
	<defs>
		<rect id="SVGID_1_" x="948" y="117.2" width="810" height="817.5"/>
	</defs>
	<clipPath id="SVGID_2_">
		<use xlink:href="#SVGID_1_"  style="overflow:visible;"/>
	</clipPath>
	<rect x="948" y="117.2" class="st0" width="810" height="817.5"/>
	<rect x="948" y="117.2" class="st0" width="810" height="810"/>
</g>
<g>
	<defs>
		<rect id="SVGID_3_" x="-1549.7" y="-69.9" width="810" height="810"/>
	</defs>
	<clipPath id="SVGID_4_">
		<use xlink:href="#SVGID_3_"  style="overflow:visible;"/>
	</clipPath>
	<rect x="-1549.7" y="-69.9" class="st1" width="810" height="810"/>
	<g class="st2">
		<g>
			<defs>
				<rect id="SVGID_5_" x="-1549.7" y="-69.9" width="810" height="810"/>
			</defs>
			<clipPath id="SVGID_6_">
				<use xlink:href="#SVGID_5_"  style="overflow:visible;"/>
			</clipPath>
			<g class="st3">
				<defs>
					<rect id="SVGID_7_" x="-1896.7" y="-141.8" width="1695.8" height="954"/>
				</defs>
				<clipPath id="SVGID_8_">
					<use xlink:href="#SVGID_7_"  style="overflow:visible;"/>
				</clipPath>
				<g transform="matrix(1 0 0 1 -1.220703e-04 0)" style="clip-path:url(#SVGID_8_);">
					
						<image style="overflow:visible;" width="3840" height="2160" xlink:href="6EC60AD7.jpg"  transform="matrix(0.4416 0 0 0.4417 -1896.7344 -141.7816)">
					</image>
				</g>
			</g>
		</g>
	</g>
</g>
<g>
	<defs>
		<rect id="SVGID_9_" x="967.2" y="297.9" width="810" height="810"/>
	</defs>
	<clipPath id="SVGID_10_">
		<use xlink:href="#SVGID_9_"  style="overflow:visible;"/>
	</clipPath>
	<rect x="954.6" y="969.9" class="st4" width="841.3" height="138.2"/>
	<rect x="951.3" y="296.4" class="st4" width="841.9" height="139.2"/>
	<g class="st5">
		<path class="st6" d="M1273.9,657.8v-94.1h24.9c5.2,0,9.3,1.2,12.4,3.5c3,2.3,5.2,5.6,6.6,9.9s2,9.4,2,15.3
			c0,5.7-0.6,10.7-1.7,14.9c-1.1,4.2-3.1,7.5-5.9,9.8c-2.8,2.3-6.9,3.5-12.1,3.5h-7.7v37.3H1273.9z M1292.4,603.6h1.1
			c3.5,0,5.6-1,6.4-2.9s1.2-4.8,1.2-8.7c0-3.6-0.4-6.3-1.2-8.3c-0.8-1.9-2.6-2.9-5.4-2.9h-2.1V603.6z"/>
	</g>
	<g class="st5">
		<path class="st6" d="M1325.6,657.8v-94.1h37.7v18.2h-18.5v18.3h17.8v17.7h-17.8v21.6h19.7v18.3H1325.6z"/>
	</g>
	<g class="st5">
		<path class="st6" d="M1370.7,657.8v-94.1h28.9c4.8,0,8.5,1.1,10.9,3.3c2.5,2.2,4.1,5.3,4.9,9.2c0.8,3.9,1.3,8.6,1.3,13.9
			c0,5.1-0.7,9.2-2,12.3c-1.3,3.1-3.8,5.2-7.4,6.4c3,0.6,5,2.1,6.2,4.4c1.2,2.3,1.8,5.4,1.8,9.1v35.6h-18.6V621
			c0-2.7-0.6-4.4-1.7-5.1c-1.1-0.7-2.9-1-5.4-1v43H1370.7z M1389.9,598.6h4.5c2.6,0,3.9-2.8,3.9-8.5c0-3.7-0.3-6.1-0.9-7.2
			c-0.6-1.1-1.6-1.7-3.2-1.7h-4.4V598.6z"/>
	</g>
	<g class="st5">
		<path class="st6" d="M1445.4,658.7c-8.6,0-14.8-2.1-18.6-6.4s-5.7-11.1-5.7-20.4v-9.2h18.6v11.8c0,2.2,0.3,3.9,1,5.1
			s1.8,1.8,3.5,1.8c1.7,0,2.9-0.5,3.6-1.5c0.7-1,1-2.6,1-4.9c0-2.9-0.3-5.3-0.9-7.2c-0.6-1.9-1.6-3.8-3-5.6
			c-1.4-1.8-3.4-3.8-5.9-6.2l-8.5-8c-6.3-6-9.5-12.8-9.5-20.4c0-8,1.9-14.1,5.6-18.3c3.7-4.2,9.1-6.3,16.2-6.3
			c8.6,0,14.8,2.3,18.4,6.9c3.6,4.6,5.4,11.6,5.4,21h-19.2v-6.5c0-1.3-0.4-2.3-1.1-3c-0.7-0.7-1.7-1.1-3-1.1c-1.5,0-2.6,0.4-3.3,1.3
			c-0.7,0.8-1,1.9-1,3.2c0,1.3,0.4,2.7,1.1,4.3c0.7,1.5,2.1,3.3,4.2,5.3l10.9,10.4c2.2,2.1,4.2,4.3,6,6.6c1.8,2.3,3.3,5,4.4,8
			c1.1,3,1.7,6.8,1.7,11.2c0,8.8-1.6,15.8-4.9,20.8C1459.1,656.2,1453.5,658.7,1445.4,658.7z"/>
	</g>
	<g class="st5">
		<path class="st6" d="M1495.3,658.7c-7.8,0-13.6-2.2-17.3-6.6c-3.7-4.4-5.6-10.9-5.6-19.4v-68.9h18.3v68.2c0,1.6,0.1,3.1,0.3,4.5
			c0.2,1.4,0.6,2.6,1.2,3.6c0.6,0.9,1.7,1.4,3.1,1.4c1.5,0,2.5-0.5,3.2-1.4c0.6-0.9,1-2.1,1.2-3.6c0.2-1.5,0.2-3,0.2-4.5v-68.2h18.3
			v68.9c0,8.6-1.9,15-5.6,19.4C1508.9,656.5,1503.1,658.7,1495.3,658.7z"/>
	</g>
	<g class="st5">
		<path class="st6" d="M1522.9,657.8l9.1-94.1h31.9l8.9,94.1H1555l-1.3-15.2h-11.3l-1.2,15.2H1522.9z M1543.7,627.6h8.6l-4.1-47.9
			h-0.9L1543.7,627.6z"/>
	</g>
	<g class="st5">
		<path class="st6" d="M1600.9,658.7c-8.6,0-14.8-2.1-18.6-6.4s-5.7-11.1-5.7-20.4v-9.2h18.6v11.8c0,2.2,0.3,3.9,1,5.1
			s1.8,1.8,3.5,1.8c1.7,0,2.9-0.5,3.6-1.5c0.7-1,1-2.6,1-4.9c0-2.9-0.3-5.3-0.9-7.2c-0.6-1.9-1.6-3.8-3-5.6
			c-1.4-1.8-3.4-3.8-5.9-6.2l-8.5-8c-6.3-6-9.5-12.8-9.5-20.4c0-8,1.9-14.1,5.6-18.3c3.7-4.2,9.1-6.3,16.2-6.3
			c8.6,0,14.8,2.3,18.4,6.9c3.6,4.6,5.4,11.6,5.4,21h-19.2v-6.5c0-1.3-0.4-2.3-1.1-3c-0.7-0.7-1.7-1.1-3-1.1c-1.5,0-2.6,0.4-3.3,1.3
			c-0.7,0.8-1,1.9-1,3.2c0,1.3,0.4,2.7,1.1,4.3c0.7,1.5,2.1,3.3,4.2,5.3l10.9,10.4c2.2,2.1,4.2,4.3,6,6.6c1.8,2.3,3.3,5,4.4,8
			c1.1,3,1.7,6.8,1.7,11.2c0,8.8-1.6,15.8-4.9,20.8C1614.7,656.2,1609,658.7,1600.9,658.7z"/>
	</g>
	<g class="st5">
		<path class="st6" d="M1628.2,657.8v-94.1h18.2v94.1H1628.2z"/>
	</g>
	<g class="st5">
		<path class="st6" d="M1662.6,657.8l-11.6-94.2h17.9l6.9,64.1l6.2-64.1h17.9l-11.6,94.2H1662.6z"/>
	</g>
	<g class="st5">
		<path class="st6" d="M1705.3,657.8v-94.1h37.7v18.2h-18.5v18.3h17.8v17.7h-17.8v21.6h19.7v18.3H1705.3z"/>
	</g>
	<g class="st5">
	</g>
	<g class="st5">
		<path class="st6" d="M1295.7,767.8c-7.8,0-13.6-2.2-17.3-6.6s-5.6-10.9-5.6-19.4v-68.9h18.3V741c0,1.6,0.1,3.1,0.3,4.5
			s0.6,2.6,1.2,3.6c0.6,0.9,1.7,1.4,3.1,1.4c1.5,0,2.5-0.5,3.2-1.4c0.6-0.9,1-2.1,1.2-3.6c0.2-1.5,0.2-3,0.2-4.5v-68.2h18.3v68.9
			c0,8.6-1.9,15-5.6,19.4C1309.3,765.6,1303.5,767.8,1295.7,767.8z"/>
	</g>
	<g class="st5">
		<path class="st6" d="M1323.1,766.9l10.1-49.9l-8-44.3h18.4l4.9,32.4l4.3-32.4h18.5l-8,44.3l10.1,49.9h-19l-5.9-36.8l-6.1,36.8
			H1323.1z"/>
	</g>
	<g class="st5">
	</g>
	<g class="st5">
		<path class="st6" d="M1404.5,766.9v-94.1h28.7l7.9,57.4l7.9-57.4h28.9v94.1h-17.2v-67.8l-10.8,67.8h-16.9l-11.4-67.8v67.8H1404.5z
			"/>
	</g>
	<g class="st5">
		<path class="st6" d="M1486.2,766.9v-94.1h37.7V691h-18.5v18.3h17.8V727h-17.8v21.6h19.7v18.3H1486.2z"/>
	</g>
	<g class="st5">
		<path class="st6" d="M1539.4,766.9v-76.1h-11.2v-18.1h41.2v18.1h-11.2v76.1H1539.4z"/>
	</g>
	<g class="st5">
		<path class="st6" d="M1574.7,766.9v-94.1h28.9c4.8,0,8.5,1.1,10.9,3.3c2.5,2.2,4.1,5.3,4.9,9.2c0.8,3.9,1.3,8.6,1.3,13.9
			c0,5.1-0.7,9.2-2,12.3c-1.3,3.1-3.8,5.2-7.4,6.4c3,0.6,5,2.1,6.2,4.4c1.2,2.3,1.8,5.4,1.8,9.1v35.6h-18.6v-36.9
			c0-2.7-0.6-4.4-1.7-5.1c-1.1-0.7-2.9-1-5.4-1v43H1574.7z M1593.9,707.7h4.5c2.6,0,3.9-2.8,3.9-8.5c0-3.7-0.3-6.1-0.9-7.2
			c-0.6-1.1-1.6-1.7-3.2-1.7h-4.4V707.7z"/>
	</g>
	<g class="st5">
		<path class="st6" d="M1626.1,766.9v-94.1h18.2v94.1H1626.1z"/>
	</g>
	<g class="st5">
		<path class="st6" d="M1673.8,767.8c-6.8,0-12.3-2.1-16.4-6.4c-4.2-4.2-6.2-10.2-6.2-17.8v-43.4c0-9.1,1.8-16.1,5.4-21
			s9.5-7.3,17.7-7.3c4.5,0,8.4,0.8,11.9,2.5c3.5,1.6,6.2,4.1,8.2,7.4c2,3.3,3,7.4,3,12.3v16.3h-18.7v-13.9c0-2.8-0.4-4.7-1.1-5.7
			c-0.7-1-1.8-1.5-3.3-1.5c-1.7,0-2.9,0.6-3.5,1.9s-0.9,3-0.9,5.1v47.1c0,2.6,0.4,4.4,1.2,5.5c0.8,1.1,1.9,1.6,3.3,1.6
			c1.6,0,2.7-0.7,3.4-2s1-3,1-5.1v-17h18.9v17.8c0,8.3-2.1,14.3-6.3,18C1687.1,765.9,1681.3,767.8,1673.8,767.8z"/>
	</g>
	<g class="st5">
		<path class="st6" d="M1726.1,767.8c-8.6,0-14.8-2.1-18.6-6.4s-5.7-11.1-5.7-20.4v-9.2h18.6v11.8c0,2.2,0.3,3.9,1,5.1
			c0.7,1.2,1.8,1.8,3.5,1.8c1.7,0,2.9-0.5,3.6-1.5c0.7-1,1-2.6,1-4.9c0-2.9-0.3-5.3-0.9-7.2c-0.6-1.9-1.6-3.8-3-5.6
			c-1.4-1.8-3.4-3.8-5.9-6.2l-8.5-8c-6.3-6-9.5-12.8-9.5-20.4c0-8,1.9-14.1,5.6-18.3c3.7-4.2,9.1-6.3,16.2-6.3
			c8.6,0,14.8,2.3,18.4,6.9c3.6,4.6,5.4,11.6,5.4,21h-19.2v-6.5c0-1.3-0.4-2.3-1.1-3c-0.7-0.7-1.7-1.1-3-1.1c-1.5,0-2.6,0.4-3.3,1.3
			c-0.7,0.8-1,1.9-1,3.2c0,1.3,0.4,2.7,1.1,4.3c0.7,1.5,2.1,3.3,4.2,5.3l10.9,10.4c2.2,2.1,4.2,4.3,6,6.6c1.8,2.3,3.3,5,4.4,8
			c1.1,3,1.7,6.8,1.7,11.2c0,8.8-1.6,15.8-4.9,20.8S1734.2,767.8,1726.1,767.8z"/>
	</g>
	<g class="st5">
		<path class="st6" d="M1283.5,830.4c-4.5,0-7.7-1.1-9.7-3.3c-2-2.2-3-5.8-3-10.6v-4.8h9.7v6.1c0,1.1,0.2,2,0.5,2.7s0.9,1,1.8,1
			c0.9,0,1.5-0.3,1.8-0.8c0.3-0.5,0.5-1.4,0.5-2.6c0-1.5-0.1-2.8-0.4-3.8c-0.3-1-0.8-2-1.5-2.9s-1.7-2-3-3.2l-4.4-4.2
			c-3.3-3.1-4.9-6.6-4.9-10.6c0-4.2,1-7.4,2.9-9.5c1.9-2.2,4.7-3.3,8.4-3.3c4.5,0,7.7,1.2,9.6,3.6c1.9,2.4,2.8,6,2.8,10.9h-10v-3.4
			c0-0.7-0.2-1.2-0.6-1.6c-0.4-0.4-0.9-0.6-1.5-0.6c-0.8,0-1.3,0.2-1.7,0.7c-0.4,0.4-0.5,1-0.5,1.7c0,0.7,0.2,1.4,0.6,2.2
			c0.4,0.8,1.1,1.7,2.2,2.8l5.6,5.4c1.1,1.1,2.2,2.2,3.1,3.4c0.9,1.2,1.7,2.6,2.3,4.2c0.6,1.6,0.9,3.5,0.9,5.8
			c0,4.6-0.8,8.2-2.5,10.8S1287.7,830.4,1283.5,830.4z"/>
	</g>
	<g class="st5">
		<path class="st6" d="M1298.2,829.9v-49h9.7v17.5h4.6V781h9.7v49h-9.7v-22.2h-4.6v22.2H1298.2z"/>
	</g>
	<g class="st5">
		<path class="st6" d="M1338.3,830.4c-3.9,0-6.9-1.2-9-3.5s-3.1-5.8-3.1-10.3v-23.3c0-4.2,1-7.4,3.1-9.5c2-2.2,5-3.3,9-3.3
			c3.9,0,6.9,1.1,9,3.3s3.1,5.4,3.1,9.5v23.3c0,4.5-1,7.9-3.1,10.3S1342.2,830.4,1338.3,830.4z M1338.4,821.4c1.5,0,2.2-1.4,2.2-4.3
			v-23.9c0-2.4-0.7-3.6-2.2-3.6c-1.6,0-2.4,1.2-2.4,3.7v23.9c0,1.5,0.2,2.6,0.6,3.3C1336.9,821,1337.5,821.4,1338.4,821.4z"/>
	</g>
	<g class="st5">
		<path class="st6" d="M1358.1,829.9l-5.3-49h9.6l2.7,30.9l2.8-30.9h9.1l2.6,30.9l2.6-30.9h9.7l-5.3,49h-11.7l-2.4-23.6l-2.3,23.6
			H1358.1z"/>
	</g>
	<g class="st5">
	</g>
	<g class="st5">
		<path class="st6" d="M1412.4,829.9v-39.6h-5.8V781h21.4v9.4h-5.8v39.6H1412.4z"/>
	</g>
	<g class="st5">
		<path class="st6" d="M1430.7,829.9v-49h9.7v17.5h4.6V781h9.7v49h-9.7v-22.2h-4.6v22.2H1430.7z"/>
	</g>
	<g class="st5">
		<path class="st6" d="M1459.2,829.9v-49h19.6v9.5h-9.6v9.5h9.2v9.2h-9.2v11.2h10.3v9.5H1459.2z"/>
	</g>
	<g class="st5">
	</g>
	<g class="st5">
		<path class="st6" d="M1500.5,829.9l-6-49h9.3l3.6,33.3l3.2-33.3h9.3l-6,49H1500.5z"/>
	</g>
	<g class="st5">
		<path class="st6" d="M1521.3,829.9l4.7-49h16.6l4.6,49h-9.3l-0.7-7.9h-5.9l-0.6,7.9H1521.3z M1532.2,814.2h4.5l-2.1-24.9h-0.4
			L1532.2,814.2z"/>
	</g>
	<g class="st5">
		<path class="st6" d="M1550.3,829.9v-49h9.8v40.6h10.1v8.3H1550.3z"/>
	</g>
	<g class="st5">
		<path class="st6" d="M1584.2,830.4c-4.1,0-7.1-1.1-9-3.4s-2.9-5.7-2.9-10.1V781h9.5v35.5c0,0.8,0,1.6,0.1,2.4s0.3,1.4,0.6,1.8
			s0.9,0.7,1.6,0.7c0.8,0,1.3-0.2,1.6-0.7s0.5-1.1,0.6-1.8c0.1-0.8,0.1-1.5,0.1-2.4V781h9.5v35.9c0,4.5-1,7.8-2.9,10.1
			S1588.3,830.4,1584.2,830.4z"/>
	</g>
	<g class="st5">
		<path class="st6" d="M1599.9,829.9v-49h19.6v9.5h-9.6v9.5h9.2v9.2h-9.2v11.2h10.3v9.5H1599.9z"/>
	</g>
	<g class="st5">
	</g>
	<g class="st5">
		<path class="st6" d="M1648.4,830.4c-3.9,0-6.9-1.2-9-3.5c-2.1-2.4-3.1-5.8-3.1-10.3v-23.3c0-4.2,1-7.4,3.1-9.5c2-2.2,5-3.3,9-3.3
			c3.9,0,6.9,1.1,9,3.3c2,2.2,3.1,5.4,3.1,9.5v23.3c0,4.5-1,7.9-3.1,10.3C1655.3,829.2,1652.3,830.4,1648.4,830.4z M1648.5,821.4
			c1.5,0,2.2-1.4,2.2-4.3v-23.9c0-2.4-0.7-3.6-2.2-3.6c-1.6,0-2.4,1.2-2.4,3.7v23.9c0,1.5,0.2,2.6,0.6,3.3
			C1647,821,1647.6,821.4,1648.5,821.4z"/>
	</g>
	<g class="st5">
		<path class="st6" d="M1664.4,829.9v-49h19.6v9.5h-9.7v7.8h9.2v9.4h-9.2v22.2H1664.4z"/>
	</g>
	<g class="st5">
	</g>
	<g class="st5">
		<path class="st6" d="M1711.8,830.4c-4.1,0-7.1-1.1-9-3.4s-2.9-5.7-2.9-10.1V781h9.5v35.5c0,0.8,0,1.6,0.1,2.4s0.3,1.4,0.6,1.8
			s0.9,0.7,1.6,0.7c0.8,0,1.3-0.2,1.6-0.7s0.5-1.1,0.6-1.8c0.1-0.8,0.1-1.5,0.1-2.4V781h9.5v35.9c0,4.5-1,7.8-2.9,10.1
			S1715.9,830.4,1711.8,830.4z"/>
	</g>
	<g class="st5">
		<path class="st6" d="M1726.1,829.9l5.3-26l-4.2-23h9.6l2.5,16.8l2.3-16.8h9.6l-4.2,23l5.2,26h-9.9l-3.1-19.1l-3.2,19.1H1726.1z"/>
	</g>
	<g class="st5">
		<path class="st6" d="M1270.7,891.5v-21.7h6.6l1.8,13.2l1.8-13.2h6.7v21.7h-4v-15.6l-2.5,15.6h-3.9l-2.6-15.6v15.6H1270.7z"/>
	</g>
	<g class="st5">
		<path class="st6" d="M1293.1,891.7c-1,0-1.8-0.2-2.3-0.7c-0.5-0.5-0.9-1.1-1.1-2c-0.2-0.8-0.3-1.8-0.3-2.8c0-1.1,0.1-2,0.3-2.8
			s0.6-1.3,1.1-1.8c0.5-0.5,1.3-0.9,2.2-1.2l2.7-0.9v-1.9c0-1-0.3-1.5-1-1.5c-0.6,0-0.9,0.4-0.9,1.2v1.1h-4.3c0-0.1,0-0.1,0-0.3
			c0-0.1,0-0.2,0-0.4c0-1.8,0.4-3.1,1.3-3.9c0.9-0.8,2.2-1.2,4.1-1.2c1,0,1.9,0.2,2.6,0.5c0.8,0.3,1.4,0.9,1.9,1.5
			c0.5,0.7,0.7,1.5,0.7,2.5v14.1h-4.4v-2.2c-0.2,0.8-0.6,1.4-1.1,1.8C1294.3,891.5,1293.7,891.7,1293.1,891.7z M1294.8,888.3
			c0.4,0,0.6-0.2,0.7-0.5s0.2-0.6,0.2-1v-5.2c-0.6,0.2-1.1,0.6-1.4,0.9c-0.3,0.4-0.5,0.9-0.5,1.6v2.4
			C1293.8,887.7,1294.1,888.3,1294.8,888.3z"/>
	</g>
	<g class="st5">
		<path class="st6" d="M1302.1,891.5V873h4.5v2.1c0.2-0.7,0.6-1.3,1.1-1.7c0.5-0.4,1.2-0.6,2-0.6v3.7c-0.4,0-0.8,0-1.3,0.1
			s-0.9,0.2-1.3,0.3s-0.6,0.3-0.6,0.5v14.1H1302.1z"/>
	</g>
	<g class="st5">
		<path class="st6" d="M1316.6,891.7c-2.1,0-3.5-0.5-4.4-1.6c-0.9-1.1-1.3-2.6-1.3-4.7v-5.7c0-1.5,0.2-2.8,0.5-3.9
			c0.3-1,0.9-1.8,1.7-2.3c0.8-0.5,2-0.8,3.4-0.8c1,0,1.9,0.2,2.7,0.5c0.8,0.4,1.4,0.9,1.9,1.6c0.5,0.7,0.7,1.6,0.7,2.6v2.8h-4.5
			v-2.6c0-0.4-0.1-0.8-0.2-1.1c-0.1-0.3-0.4-0.4-0.8-0.4c-0.7,0-1.1,0.5-1.1,1.5v9c0,0.4,0.1,0.7,0.2,1s0.4,0.5,0.8,0.5
			c0.4,0,0.7-0.2,0.8-0.5c0.2-0.3,0.2-0.7,0.2-1.1v-3.1h4.5v3.2c0,1-0.2,1.9-0.7,2.6c-0.5,0.7-1.1,1.3-1.9,1.7
			C1318.6,891.5,1317.7,891.7,1316.6,891.7z"/>
	</g>
	<g class="st5">
		<path class="st6" d="M1323.7,891.5v-21.7h4.5v5c0.2-0.7,0.6-1.2,1.1-1.5c0.5-0.3,1.1-0.5,1.7-0.5c1.3,0,2.2,0.4,2.8,1.2
			c0.6,0.8,0.9,1.9,0.9,3.2v14.2h-4.5v-14c0-0.4-0.1-0.7-0.3-1c-0.2-0.3-0.4-0.4-0.8-0.4c-0.3,0-0.5,0.1-0.7,0.4
			c-0.2,0.3-0.3,0.6-0.3,0.9v14H1323.7z"/>
	</g>
	<g class="st5">
	</g>
	<g class="st5">
		<path class="st6" d="M1342.8,891.5v-1c0-1.1,0.2-2,0.5-2.9c0.3-0.9,0.8-1.7,1.3-2.4s1.1-1.5,1.7-2.2c0.6-0.7,1.1-1.4,1.6-2.1
			c0.5-0.7,0.9-1.5,1.3-2.4c0.3-0.9,0.5-1.8,0.5-2.9c0-0.5-0.1-0.9-0.2-1.3s-0.5-0.5-0.9-0.5c-0.7,0-1.1,0.6-1.1,1.9v2.6h-4.6
			c0-0.2,0-0.4,0-0.6c0-0.2,0-0.5,0-0.7c0-1.6,0.2-2.9,0.5-4c0.3-1.1,0.9-1.9,1.7-2.5c0.8-0.6,2-0.9,3.5-0.9c1.8,0,3.2,0.5,4.2,1.5
			c1,1,1.5,2.5,1.5,4.3c0,1.3-0.2,2.4-0.5,3.3c-0.3,1-0.8,1.8-1.3,2.6c-0.5,0.8-1.1,1.6-1.8,2.3c-0.5,0.5-0.9,1.1-1.3,1.7
			c-0.4,0.6-0.8,1.2-1.1,1.8h5.9v4.1H1342.8z"/>
	</g>
	<g class="st5">
		<path class="st6" d="M1360.9,891.7c-0.9,0-1.8-0.2-2.6-0.5s-1.4-0.8-1.9-1.4c-0.5-0.6-0.7-1.4-0.7-2.4v-2.3h4.2v0.4
			c0,0.4,0,0.7,0.1,1.1c0,0.4,0.1,0.7,0.3,0.9s0.4,0.4,0.7,0.4c0.5,0,0.8-0.1,1-0.4c0.2-0.3,0.3-0.7,0.3-1.2V882
			c-0.2,0.4-0.5,0.7-0.9,0.9c-0.4,0.2-0.9,0.4-1.5,0.4c-1.2,0-2.1-0.2-2.8-0.7s-1.1-1.2-1.3-2.2c-0.2-1-0.4-2.1-0.4-3.6
			c0-1.4,0.2-2.7,0.5-3.8c0.4-1.1,0.9-1.9,1.8-2.5c0.8-0.6,1.9-0.9,3.4-0.9c1.5,0,2.7,0.3,3.5,0.8c0.8,0.5,1.4,1.3,1.8,2.3
			c0.3,1,0.5,2.3,0.5,3.9v5.9c0,1.5-0.1,2.8-0.2,4c-0.1,1.2-0.4,2.1-0.8,2.9c-0.4,0.8-1,1.4-1.8,1.8
			C1363.3,891.5,1362.2,891.7,1360.9,891.7z M1361.1,879.5c0.8,0,1.1-0.5,1.1-1.5v-2.7c0-1.1-0.4-1.6-1.1-1.6
			c-0.5,0-0.8,0.2-0.9,0.6c-0.1,0.4-0.1,1-0.1,1.7v1.8C1360.1,878.9,1360.5,879.5,1361.1,879.5z"/>
	</g>
	<g class="st5">
	</g>
	<g class="st5">
		<path class="st6" d="M1374.6,885.3v-2.9h6.4v2.9H1374.6z"/>
	</g>
	<g class="st5">
	</g>
	<g class="st5">
		<path class="st6" d="M1388.5,891.5l2.1-21.7h7.4l2.1,21.7h-4.1l-0.3-3.5h-2.6l-0.3,3.5H1388.5z M1393.3,884.6h2l-0.9-11h-0.2
			L1393.3,884.6z"/>
	</g>
	<g class="st5">
		<path class="st6" d="M1401.5,894.6V873h4.5v2c0.3-0.7,0.6-1.2,1.1-1.6c0.5-0.4,1.2-0.6,2.1-0.6c1.2,0,2.1,0.4,2.6,1.3
			s0.7,2,0.7,3.5v9.1c0,0.9-0.1,1.8-0.4,2.6c-0.3,0.8-0.7,1.4-1.3,1.8s-1.3,0.7-2.2,0.7c-1.2,0-2.1-0.7-2.6-2.2v5.1H1401.5z
			 M1407,888.3c0.5,0,0.7-0.2,0.8-0.7c0.1-0.5,0.1-1,0.1-1.7v-7.2c0-0.7,0-1.3-0.1-1.7c-0.1-0.5-0.4-0.7-0.8-0.7
			c-0.5,0-0.8,0.2-0.9,0.7c-0.1,0.5-0.2,1-0.2,1.7v7.2c0,0.7,0.1,1.2,0.2,1.7C1406.2,888.1,1406.5,888.3,1407,888.3z"/>
	</g>
	<g class="st5">
		<path class="st6" d="M1414.4,891.5V873h4.5v2.1c0.2-0.7,0.6-1.3,1.1-1.7c0.5-0.4,1.2-0.6,2-0.6v3.7c-0.4,0-0.8,0-1.3,0.1
			c-0.5,0.1-0.9,0.2-1.3,0.3s-0.6,0.3-0.6,0.5v14.1H1414.4z"/>
	</g>
	<g class="st5">
		<path class="st6" d="M1423.3,871.9v-3.7h4.4v3.7H1423.3z M1423.3,891.5V873h4.4v18.5H1423.3z"/>
	</g>
	<g class="st5">
		<path class="st6" d="M1429.7,891.5v-21.7h4.5v21.7H1429.7z"/>
	</g>
	<g class="st5">
	</g>
	<g class="st5">
		<path class="st6" d="M1442.2,891.5v-1c0-1.1,0.2-2,0.5-2.9c0.3-0.9,0.8-1.7,1.3-2.4s1.1-1.5,1.7-2.2c0.6-0.7,1.1-1.4,1.6-2.1
			c0.5-0.7,0.9-1.5,1.3-2.4c0.3-0.9,0.5-1.8,0.5-2.9c0-0.5-0.1-0.9-0.2-1.3c-0.2-0.4-0.5-0.5-0.9-0.5c-0.7,0-1.1,0.6-1.1,1.9v2.6
			h-4.6c0-0.2,0-0.4,0-0.6c0-0.2,0-0.5,0-0.7c0-1.6,0.2-2.9,0.5-4c0.3-1.1,0.9-1.9,1.7-2.5s2-0.9,3.5-0.9c1.8,0,3.2,0.5,4.2,1.5
			s1.5,2.5,1.5,4.3c0,1.3-0.2,2.4-0.5,3.3c-0.3,1-0.8,1.8-1.3,2.6c-0.5,0.8-1.1,1.6-1.8,2.3c-0.5,0.5-0.9,1.1-1.3,1.7
			c-0.4,0.6-0.8,1.2-1.1,1.8h5.9v4.1H1442.2z"/>
	</g>
	<g class="st5">
	</g>
	<g class="st5">
	</g>
	<g class="st5">
		<path class="st6" d="M1470.9,886.6c-1.2,0-2.2-0.4-2.8-1.2c-0.7-0.8-1-1.8-1-3c0-1.2,0.3-2.3,1-3c0.7-0.8,1.6-1.1,2.8-1.1
			c1.2,0,2.2,0.4,2.9,1.1c0.7,0.8,1,1.8,1,3c0,1.2-0.3,2.2-1,3C1473.1,886.2,1472.1,886.6,1470.9,886.6z"/>
	</g>
	<g class="st5">
	</g>
	<g class="st5">
	</g>
	<g class="st5">
		<path class="st6" d="M1488.8,891.5v-21.7h4.5v21.7H1488.8z"/>
	</g>
	<g class="st5">
		<path class="st6" d="M1500.5,891.7c-1.3,0-2.4-0.2-3.1-0.7c-0.8-0.5-1.3-1.2-1.7-2.1c-0.3-0.9-0.5-2-0.5-3.4v-7.4
			c0-1.7,0.5-3,1.5-3.9c1-0.9,2.3-1.3,4.1-1.3c3.5,0,5.3,1.7,5.3,5.2v1.3c0,1.6,0,2.7,0,3.3h-6.4v3.6c0,0.3,0,0.7,0.1,1
			s0.1,0.6,0.3,0.8c0.1,0.2,0.4,0.3,0.7,0.3c0.5,0,0.7-0.2,0.9-0.6s0.2-0.9,0.2-1.6v-1.8h4.4v1c0,1.4-0.2,2.5-0.5,3.5
			c-0.3,0.9-0.9,1.6-1.7,2.1C1503,891.5,1501.9,891.7,1500.5,891.7z M1499.6,880.5h2.1V878c0-0.7-0.1-1.1-0.2-1.4
			c-0.2-0.3-0.4-0.4-0.7-0.4c-0.4,0-0.6,0.1-0.8,0.4s-0.3,0.8-0.3,1.5V880.5z"/>
	</g>
	<g class="st5">
		<path class="st6" d="M1511.3,891.7c-1,0-1.8-0.2-2.3-0.7s-0.9-1.1-1.1-2c-0.2-0.8-0.3-1.8-0.3-2.8c0-1.1,0.1-2,0.3-2.8
			s0.6-1.3,1.1-1.8s1.3-0.9,2.2-1.2l2.7-0.9v-1.9c0-1-0.3-1.5-1-1.5c-0.6,0-0.9,0.4-0.9,1.2v1.1h-4.3c0-0.1,0-0.1,0-0.3
			c0-0.1,0-0.2,0-0.4c0-1.8,0.4-3.1,1.3-3.9c0.9-0.8,2.2-1.2,4.1-1.2c1,0,1.9,0.2,2.7,0.5c0.8,0.3,1.4,0.9,1.9,1.5
			c0.5,0.7,0.7,1.5,0.7,2.5v14.1h-4.4v-2.2c-0.2,0.8-0.6,1.4-1.1,1.8C1512.5,891.5,1511.9,891.7,1511.3,891.7z M1513,888.3
			c0.4,0,0.6-0.2,0.7-0.5s0.2-0.6,0.2-1v-5.2c-0.6,0.2-1.1,0.6-1.4,0.9c-0.3,0.4-0.5,0.9-0.5,1.6v2.4
			C1512,887.7,1512.3,888.3,1513,888.3z"/>
	</g>
	<g class="st5">
		<path class="st6" d="M1524,891.7c-0.9,0-1.5-0.2-2-0.5c-0.5-0.3-0.9-0.7-1.1-1.3c-0.2-0.5-0.4-1.2-0.5-1.9s-0.1-1.5-0.1-2.4v-8
			c0-1.4,0.3-2.6,0.8-3.5c0.5-0.9,1.4-1.3,2.6-1.3c0.9,0,1.6,0.2,2.1,0.6s0.9,0.9,1.1,1.6v-5.2h4.5v21.7h-4.5v-2
			c-0.2,0.7-0.6,1.2-1,1.6C1525.3,891.5,1524.7,891.7,1524,891.7z M1525.7,888.3c0.4,0,0.7-0.2,0.8-0.5c0.1-0.3,0.2-0.9,0.2-1.8
			v-7.8c0-0.4-0.1-0.9-0.2-1.3c-0.1-0.4-0.4-0.6-0.8-0.6c-0.5,0-0.8,0.2-0.9,0.6c-0.1,0.4-0.2,0.8-0.2,1.3v7.8
			C1524.6,887.5,1525,888.3,1525.7,888.3z"/>
	</g>
	<g class="st5">
		<path class="st6" d="M1538.3,891.7c-1.3,0-2.4-0.2-3.1-0.7c-0.8-0.5-1.3-1.2-1.7-2.1c-0.3-0.9-0.5-2-0.5-3.4v-7.4
			c0-1.7,0.5-3,1.5-3.9c1-0.9,2.3-1.3,4.1-1.3c3.5,0,5.3,1.7,5.3,5.2v1.3c0,1.6,0,2.7,0,3.3h-6.4v3.6c0,0.3,0,0.7,0.1,1
			s0.1,0.6,0.3,0.8c0.1,0.2,0.4,0.3,0.7,0.3c0.5,0,0.7-0.2,0.9-0.6s0.2-0.9,0.2-1.6v-1.8h4.4v1c0,1.4-0.2,2.5-0.5,3.5
			c-0.3,0.9-0.9,1.6-1.7,2.1C1540.8,891.5,1539.7,891.7,1538.3,891.7z M1537.4,880.5h2.1V878c0-0.7-0.1-1.1-0.2-1.4
			c-0.2-0.3-0.4-0.4-0.7-0.4c-0.4,0-0.6,0.1-0.8,0.4s-0.3,0.8-0.3,1.5V880.5z"/>
	</g>
	<g class="st5">
		<path class="st6" d="M1545.7,891.5V873h4.5v2.1c0.2-0.7,0.6-1.3,1.1-1.7c0.5-0.4,1.2-0.6,2-0.6v3.7c-0.4,0-0.8,0-1.3,0.1
			c-0.5,0.1-0.9,0.2-1.3,0.3s-0.6,0.3-0.6,0.5v14.1H1545.7z"/>
	</g>
	<g class="st5">
		<path class="st6" d="M1559.7,891.7c-3.6,0-5.5-1.8-5.5-5.5v-1.5h4.4v2.2c0,0.4,0.1,0.7,0.2,1c0.2,0.2,0.4,0.4,0.8,0.4
			c0.6,0,1-0.5,1-1.4c0-0.8-0.2-1.4-0.5-1.8s-0.7-0.8-1.2-1.2l-2.4-1.8c-0.7-0.6-1.3-1.2-1.7-1.8c-0.4-0.6-0.6-1.5-0.6-2.7
			c0-1.1,0.3-1.9,0.8-2.6c0.5-0.7,1.2-1.2,2-1.5s1.7-0.5,2.7-0.5c3.6,0,5.4,1.8,5.4,5.4v0.3h-4.6v-0.7c0-0.4-0.1-0.7-0.2-1.1
			c-0.1-0.3-0.4-0.5-0.7-0.5c-0.6,0-0.9,0.3-0.9,1c0,0.7,0.3,1.2,0.8,1.6l2.7,2c0.9,0.6,1.6,1.3,2.2,2.2c0.6,0.8,0.9,2,0.9,3.4
			c0,1.7-0.5,3.1-1.5,4C1562.8,891.3,1561.5,891.7,1559.7,891.7z"/>
	</g>
	<g class="st5">
		<path class="st6" d="M1566.7,891.5v-3.7h4.4v3.7H1566.7z"/>
	</g>
	<g class="st5">
		<path class="st6" d="M1578.5,891.7c-2.1,0-3.5-0.5-4.4-1.6c-0.9-1.1-1.3-2.6-1.3-4.7v-5.7c0-1.5,0.2-2.8,0.5-3.9
			c0.3-1,0.9-1.8,1.7-2.3c0.8-0.5,2-0.8,3.4-0.8c1,0,1.9,0.2,2.7,0.5c0.8,0.4,1.4,0.9,1.9,1.6c0.5,0.7,0.7,1.6,0.7,2.6v2.8h-4.5
			v-2.6c0-0.4-0.1-0.8-0.2-1.1s-0.4-0.4-0.8-0.4c-0.7,0-1.1,0.5-1.1,1.5v9c0,0.4,0.1,0.7,0.2,1c0.2,0.3,0.4,0.5,0.8,0.5
			c0.4,0,0.7-0.2,0.8-0.5c0.2-0.3,0.2-0.7,0.2-1.1v-3.1h4.5v3.2c0,1-0.2,1.9-0.7,2.6c-0.5,0.7-1.1,1.3-1.9,1.7
			C1580.4,891.5,1579.5,891.7,1578.5,891.7z"/>
	</g>
	<g class="st5">
		<path class="st6" d="M1590.8,891.7c-1.3,0-2.4-0.2-3.1-0.7c-0.8-0.5-1.3-1.2-1.7-2.1c-0.3-0.9-0.5-2-0.5-3.4v-7.4
			c0-1.7,0.5-3,1.5-3.9c1-0.9,2.3-1.3,4.1-1.3c3.5,0,5.3,1.7,5.3,5.2v1.3c0,1.6,0,2.7,0,3.3h-6.4v3.6c0,0.3,0,0.7,0.1,1
			s0.1,0.6,0.3,0.8c0.1,0.2,0.4,0.3,0.7,0.3c0.5,0,0.7-0.2,0.9-0.6s0.2-0.9,0.2-1.6v-1.8h4.4v1c0,1.4-0.2,2.5-0.5,3.5
			c-0.3,0.9-0.9,1.6-1.7,2.1C1593.3,891.5,1592.2,891.7,1590.8,891.7z M1589.8,880.5h2.1V878c0-0.7-0.1-1.1-0.2-1.4
			c-0.2-0.3-0.4-0.4-0.7-0.4c-0.4,0-0.6,0.1-0.8,0.4s-0.3,0.8-0.3,1.5V880.5z"/>
	</g>
	<g class="st5">
		<path class="st6" d="M1598.2,891.5V873h4.4v2.4c0.2-0.7,0.5-1.3,0.9-1.8c0.4-0.5,1.1-0.7,1.9-0.7c1.3,0,2.2,0.4,2.8,1.2
			c0.6,0.8,0.9,1.9,0.9,3.2v14.3h-4.4v-13.8c0-0.4-0.1-0.7-0.2-1c-0.1-0.3-0.4-0.5-0.8-0.5c-0.3,0-0.6,0.1-0.7,0.4
			c-0.2,0.2-0.3,0.5-0.3,0.9c0,0.3-0.1,0.7-0.1,1v13H1598.2z"/>
	</g>
	<g class="st5">
		<path class="st6" d="M1614.8,891.7c-1.2,0-2-0.3-2.4-0.8c-0.4-0.5-0.6-1.3-0.6-2.3v-11.5h-1.2v-3.4h1.2v-3.9h4.3v3.9h1.2v3.4h-1.2
			v10.5c0,0.3,0,0.5,0.1,0.6c0.1,0.1,0.3,0.2,0.6,0.2c0.2,0,0.4,0,0.5,0v3c-0.1,0-0.4,0.1-0.9,0.2
			C1615.9,891.7,1615.3,891.7,1614.8,891.7z"/>
	</g>
	<g class="st5">
		<path class="st6" d="M1624.1,891.7c-1.3,0-2.4-0.2-3.1-0.7c-0.8-0.5-1.3-1.2-1.7-2.1c-0.3-0.9-0.5-2-0.5-3.4v-7.4
			c0-1.7,0.5-3,1.5-3.9c1-0.9,2.3-1.3,4.1-1.3c3.5,0,5.3,1.7,5.3,5.2v1.3c0,1.6,0,2.7,0,3.3h-6.4v3.6c0,0.3,0,0.7,0.1,1
			s0.1,0.6,0.3,0.8c0.1,0.2,0.4,0.3,0.7,0.3c0.5,0,0.7-0.2,0.9-0.6s0.2-0.9,0.2-1.6v-1.8h4.4v1c0,1.4-0.2,2.5-0.5,3.5
			c-0.3,0.9-0.9,1.6-1.7,2.1C1626.6,891.5,1625.5,891.7,1624.1,891.7z M1623.2,880.5h2.1V878c0-0.7-0.1-1.1-0.2-1.4
			c-0.2-0.3-0.4-0.4-0.7-0.4c-0.4,0-0.6,0.1-0.8,0.4s-0.3,0.8-0.3,1.5V880.5z"/>
	</g>
	<g class="st5">
		<path class="st6" d="M1631.5,891.5V873h4.5v2.1c0.2-0.7,0.6-1.3,1.1-1.7c0.5-0.4,1.2-0.6,2-0.6v3.7c-0.4,0-0.8,0-1.3,0.1
			c-0.5,0.1-0.9,0.2-1.3,0.3s-0.6,0.3-0.6,0.5v14.1H1631.5z"/>
	</g>
	<g class="st5">
		<path class="st6" d="M1646,891.7c-2.1,0-3.5-0.5-4.4-1.6c-0.9-1.1-1.3-2.6-1.3-4.7v-5.7c0-1.5,0.2-2.8,0.5-3.9
			c0.3-1,0.9-1.8,1.7-2.3c0.8-0.5,2-0.8,3.4-0.8c1,0,1.9,0.2,2.7,0.5c0.8,0.4,1.4,0.9,1.9,1.6c0.5,0.7,0.7,1.6,0.7,2.6v2.8h-4.5
			v-2.6c0-0.4-0.1-0.8-0.2-1.1s-0.4-0.4-0.8-0.4c-0.7,0-1.1,0.5-1.1,1.5v9c0,0.4,0.1,0.7,0.2,1c0.2,0.3,0.4,0.5,0.8,0.5
			c0.4,0,0.7-0.2,0.8-0.5c0.2-0.3,0.2-0.7,0.2-1.1v-3.1h4.5v3.2c0,1-0.2,1.9-0.7,2.6c-0.5,0.7-1.1,1.3-1.9,1.7
			C1647.9,891.5,1647,891.7,1646,891.7z"/>
	</g>
	<g class="st5">
		<path class="st6" d="M1658.3,891.7c-1.3,0-2.4-0.2-3.1-0.7c-0.8-0.5-1.3-1.2-1.7-2.1c-0.3-0.9-0.5-2-0.5-3.4v-7.4
			c0-1.7,0.5-3,1.5-3.9c1-0.9,2.3-1.3,4.1-1.3c3.5,0,5.3,1.7,5.3,5.2v1.3c0,1.6,0,2.7,0,3.3h-6.4v3.6c0,0.3,0,0.7,0.1,1
			s0.1,0.6,0.3,0.8c0.1,0.2,0.4,0.3,0.7,0.3c0.5,0,0.7-0.2,0.9-0.6s0.2-0.9,0.2-1.6v-1.8h4.4v1c0,1.4-0.2,2.5-0.5,3.5
			c-0.3,0.9-0.9,1.6-1.7,2.1C1660.8,891.5,1659.7,891.7,1658.3,891.7z M1657.3,880.5h2.1V878c0-0.7-0.1-1.1-0.2-1.4
			c-0.2-0.3-0.4-0.4-0.7-0.4c-0.4,0-0.6,0.1-0.8,0.4s-0.3,0.8-0.3,1.5V880.5z"/>
	</g>
	<g class="st5">
		<path class="st6" d="M1665.7,891.5V873h4.4v2.4c0.2-0.7,0.5-1.3,0.9-1.8c0.4-0.5,1.1-0.7,1.9-0.7c1.3,0,2.2,0.4,2.8,1.2
			c0.6,0.8,0.9,1.9,0.9,3.2v14.3h-4.4v-13.8c0-0.4-0.1-0.7-0.2-1c-0.1-0.3-0.4-0.5-0.8-0.5c-0.3,0-0.6,0.1-0.7,0.4
			c-0.2,0.2-0.3,0.5-0.3,0.9c0,0.3-0.1,0.7-0.1,1v13H1665.7z"/>
	</g>
	<g class="st5">
		<path class="st6" d="M1682.3,891.7c-1.2,0-2-0.3-2.4-0.8c-0.4-0.5-0.6-1.3-0.6-2.3v-11.5h-1.2v-3.4h1.2v-3.9h4.3v3.9h1.2v3.4h-1.2
			v10.5c0,0.3,0,0.5,0.1,0.6c0.1,0.1,0.3,0.2,0.6,0.2c0.2,0,0.4,0,0.5,0v3c-0.1,0-0.4,0.1-0.9,0.2
			C1683.4,891.7,1682.8,891.7,1682.3,891.7z"/>
	</g>
	<g class="st5">
		<path class="st6" d="M1686.5,891.5V873h4.5v2.1c0.2-0.7,0.6-1.3,1.1-1.7c0.5-0.4,1.2-0.6,2-0.6v3.7c-0.4,0-0.8,0-1.3,0.1
			c-0.5,0.1-0.9,0.2-1.3,0.3s-0.6,0.3-0.6,0.5v14.1H1686.5z"/>
	</g>
	<g class="st5">
		<path class="st6" d="M1700.6,891.7c-1.3,0-2.4-0.2-3.1-0.7c-0.8-0.5-1.3-1.2-1.7-2.1c-0.3-0.9-0.5-2-0.5-3.4v-7.4
			c0-1.7,0.5-3,1.5-3.9c1-0.9,2.3-1.3,4.1-1.3c3.5,0,5.3,1.7,5.3,5.2v1.3c0,1.6,0,2.7,0,3.3h-6.4v3.6c0,0.3,0,0.7,0.1,1
			s0.1,0.6,0.3,0.8c0.1,0.2,0.4,0.3,0.7,0.3c0.5,0,0.7-0.2,0.9-0.6s0.2-0.9,0.2-1.6v-1.8h4.4v1c0,1.4-0.2,2.5-0.5,3.5
			c-0.3,0.9-0.9,1.6-1.7,2.1C1703.1,891.5,1702,891.7,1700.6,891.7z M1699.6,880.5h2.1V878c0-0.7-0.1-1.1-0.2-1.4
			c-0.2-0.3-0.4-0.4-0.7-0.4c-0.4,0-0.6,0.1-0.8,0.4s-0.3,0.8-0.3,1.5V880.5z"/>
	</g>
	<g class="st5">
		<path class="st6" d="M1707.8,891.5v-3.7h4.4v3.7H1707.8z"/>
	</g>
	<g class="st5">
		<path class="st6" d="M1719.6,891.7c-2.1,0-3.5-0.5-4.4-1.6c-0.9-1.1-1.3-2.6-1.3-4.7v-5.7c0-1.5,0.2-2.8,0.5-3.9
			c0.3-1,0.9-1.8,1.7-2.3c0.8-0.5,2-0.8,3.4-0.8c1,0,1.9,0.2,2.7,0.5c0.8,0.4,1.4,0.9,1.9,1.6c0.5,0.7,0.7,1.6,0.7,2.6v2.8h-4.5
			v-2.6c0-0.4-0.1-0.8-0.2-1.1s-0.4-0.4-0.8-0.4c-0.7,0-1.1,0.5-1.1,1.5v9c0,0.4,0.1,0.7,0.2,1c0.2,0.3,0.4,0.5,0.8,0.5
			c0.4,0,0.7-0.2,0.8-0.5c0.2-0.3,0.2-0.7,0.2-1.1v-3.1h4.5v3.2c0,1-0.2,1.9-0.7,2.6c-0.5,0.7-1.1,1.3-1.9,1.7
			C1721.5,891.5,1720.6,891.7,1719.6,891.7z"/>
	</g>
	<g class="st5">
		<path class="st6" d="M1732,891.7c-3.7,0-5.5-1.9-5.5-5.7v-7.4c0-1.7,0.5-3.1,1.5-4.2s2.3-1.6,4.1-1.6c1.7,0,3.1,0.5,4.1,1.6
			s1.5,2.4,1.5,4.2v7.4C1737.5,889.8,1735.7,891.7,1732,891.7z M1732,888.3c0.4,0,0.6-0.1,0.8-0.4s0.2-0.6,0.2-1v-9
			c0-1.1-0.3-1.6-1-1.6c-0.7,0-1,0.5-1,1.6v9c0,0.4,0.1,0.8,0.2,1S1731.6,888.3,1732,888.3z"/>
	</g>
	<g class="st5">
		<path class="st6" d="M1739.4,891.5V873h4.3v2.1c0.2-0.8,0.5-1.3,1-1.7s1.2-0.6,2.1-0.6c0.7,0,1.4,0.2,1.9,0.5s0.9,0.8,1.1,1.3
			c0.3-0.6,0.7-1.1,1.2-1.4c0.5-0.3,1.1-0.5,2-0.5c1,0,1.8,0.2,2.4,0.7s0.9,1,1.2,1.8s0.3,1.7,0.3,2.7v13.5h-4.4v-13.6
			c0-1.2-0.3-1.8-0.9-1.8c-0.3,0-0.6,0.1-0.7,0.3c-0.2,0.2-0.3,0.5-0.4,0.8c-0.1,0.3-0.1,0.6-0.1,1v13.3h-4.4v-13.6
			c0-0.4,0-0.8-0.1-1.2c-0.1-0.4-0.3-0.6-0.7-0.6c-0.3,0-0.6,0.1-0.8,0.4s-0.3,0.5-0.4,0.9c-0.1,0.3-0.1,0.7-0.1,1v13.1H1739.4z"/>
	</g>
</g>
<g>
	<defs>
		<rect id="SVGID_11_" x="543" y="358.7" width="810" height="810"/>
	</defs>
	<clipPath id="SVGID_12_">
		<use xlink:href="#SVGID_11_"  style="overflow:visible;"/>
	</clipPath>
	<g class="st7">
		<path class="st6" d="M592.9,924.4v-21.7h8.7v4.2h-4.3v3.5h4.1v4.2h-4.1v9.8H592.9z"/>
	</g>
	<g class="st7">
		<path class="st6" d="M603.2,924.4v-18.5h4.5v2.1c0.2-0.7,0.6-1.3,1.1-1.7c0.5-0.4,1.2-0.6,2-0.6v3.7c-0.4,0-0.8,0-1.3,0.1
			c-0.5,0.1-0.9,0.2-1.3,0.3c-0.4,0.1-0.6,0.3-0.6,0.5v14.1H603.2z"/>
	</g>
	<g class="st7">
		<path class="st6" d="M617.3,924.6c-1.3,0-2.4-0.2-3.1-0.7c-0.8-0.5-1.3-1.2-1.7-2.1c-0.3-0.9-0.5-2-0.5-3.4V911
			c0-1.7,0.5-3,1.5-3.9c1-0.9,2.3-1.3,4.1-1.3c3.5,0,5.3,1.7,5.3,5.2v1.3c0,1.6,0,2.7,0,3.3h-6.4v3.6c0,0.3,0,0.7,0.1,1
			s0.1,0.6,0.3,0.8c0.1,0.2,0.4,0.3,0.7,0.3c0.5,0,0.7-0.2,0.9-0.6s0.2-0.9,0.2-1.6v-1.8h4.4v1c0,1.4-0.2,2.5-0.5,3.5
			c-0.3,0.9-0.9,1.6-1.7,2.1C619.8,924.4,618.7,924.6,617.3,924.6z M616.4,913.4h2.1v-2.5c0-0.7-0.1-1.1-0.2-1.4
			c-0.2-0.3-0.4-0.4-0.7-0.4c-0.4,0-0.6,0.1-0.8,0.4s-0.3,0.8-0.3,1.5V913.4z"/>
	</g>
	<g class="st7">
		<path class="st6" d="M629.9,924.6c-1.3,0-2.4-0.2-3.1-0.7c-0.8-0.5-1.3-1.2-1.7-2.1c-0.3-0.9-0.5-2-0.5-3.4V911
			c0-1.7,0.5-3,1.5-3.9c1-0.9,2.3-1.3,4.1-1.3c3.5,0,5.3,1.7,5.3,5.2v1.3c0,1.6,0,2.7,0,3.3h-6.4v3.6c0,0.3,0,0.7,0.1,1
			c0,0.3,0.1,0.6,0.3,0.8c0.1,0.2,0.4,0.3,0.7,0.3c0.5,0,0.7-0.2,0.9-0.6s0.2-0.9,0.2-1.6v-1.8h4.4v1c0,1.4-0.2,2.5-0.5,3.5
			c-0.3,0.9-0.9,1.6-1.7,2.1C632.4,924.4,631.3,924.6,629.9,924.6z M628.9,913.4h2.1v-2.5c0-0.7-0.1-1.1-0.2-1.4
			c-0.2-0.3-0.4-0.4-0.7-0.4c-0.4,0-0.6,0.1-0.8,0.4s-0.3,0.8-0.3,1.5V913.4z"/>
	</g>
	<g class="st7">
	</g>
	<g class="st7">
		<path class="st6" d="M648.8,924.7c-1.7,0-3-0.4-4.1-1.2c-1.1-0.8-1.6-2.1-1.6-3.8v-3.2h4.5v1.9c0,0.4,0,0.8,0.1,1.1
			c0,0.4,0.1,0.7,0.3,0.9c0.2,0.2,0.4,0.3,0.8,0.3c0.5,0,0.8-0.2,0.9-0.5c0.1-0.3,0.2-0.7,0.2-1.2v-4.3c0-0.4,0-0.7-0.1-1
			s-0.1-0.6-0.3-0.9c-0.2-0.2-0.4-0.3-0.8-0.3c-0.8,0-1.2,0.6-1.2,1.8h-4v-11.5h10.3v4.1h-6.2v3.1c0.2-0.3,0.5-0.5,0.9-0.7
			s0.8-0.3,1.3-0.3c1,0,1.8,0.2,2.4,0.6c0.6,0.4,1.1,0.9,1.4,1.6c0.3,0.7,0.6,1.5,0.7,2.3c0.1,0.9,0.2,1.8,0.2,2.9
			c0,1.3-0.1,2.5-0.2,3.5c-0.1,1-0.4,1.9-0.8,2.7c-0.4,0.7-1,1.3-1.8,1.7C651,924.5,650,924.7,648.8,924.7z"/>
	</g>
	<g class="st7">
		<path class="st6" d="M656,918.1v-2.9h6.4v2.9H656z"/>
	</g>
	<g class="st7">
		<path class="st6" d="M664.3,924.4v-21.7h6c1.6,0,2.7,0.4,3.5,1.3c0.8,0.9,1.2,2.1,1.2,3.8V918c0,2.1-0.4,3.6-1.1,4.8
			s-2,1.7-3.8,1.7H664.3z M668.7,920.6h0.8c0.8,0,1.2-0.4,1.2-1.2v-11.2c0-0.7-0.1-1.2-0.3-1.4c-0.2-0.2-0.6-0.3-1.2-0.3h-0.5V920.6
			z"/>
	</g>
	<g class="st7">
		<path class="st6" d="M680.3,924.6c-1,0-1.8-0.2-2.3-0.7c-0.5-0.5-0.9-1.1-1.1-2c-0.2-0.8-0.3-1.8-0.3-2.8c0-1.1,0.1-2,0.3-2.8
			s0.6-1.3,1.1-1.8c0.5-0.5,1.3-0.9,2.2-1.2l2.7-0.9v-1.9c0-1-0.3-1.5-1-1.5c-0.6,0-0.9,0.4-0.9,1.2v1.1h-4.3c0-0.1,0-0.1,0-0.3
			c0-0.1,0-0.2,0-0.4c0-1.8,0.4-3.1,1.3-3.9c0.9-0.8,2.2-1.2,4.1-1.2c1,0,1.9,0.2,2.7,0.5c0.8,0.3,1.4,0.9,1.9,1.5
			c0.5,0.7,0.7,1.5,0.7,2.5v14.1H683v-2.2c-0.2,0.8-0.6,1.4-1.1,1.8C681.5,924.4,680.9,924.6,680.3,924.6z M682,921.2
			c0.4,0,0.6-0.2,0.7-0.5s0.2-0.6,0.2-1v-5.2c-0.6,0.2-1.1,0.6-1.4,0.9c-0.3,0.4-0.5,0.9-0.5,1.6v2.4
			C681,920.6,681.4,921.2,682,921.2z"/>
	</g>
	<g class="st7">
		<path class="st6" d="M689,927.5v-2.8h2.1c0.3,0,0.5-0.1,0.5-0.3c0-0.1,0-0.2,0-0.4l-2.9-18.1h4.2l1.2,13.6l1.5-13.6h4.3l-3.4,19.4
			c-0.1,0.7-0.4,1.2-0.7,1.6s-0.9,0.5-1.7,0.5H689z"/>
	</g>
	<g class="st7">
	</g>
	<g class="st7">
		<path class="st6" d="M707.3,924.4v-21.7h4.2v21.7H707.3z"/>
	</g>
	<g class="st7">
		<path class="st6" d="M713.4,924.4v-18.5h4.4v2.4c0.2-0.7,0.5-1.3,0.9-1.8c0.4-0.5,1.1-0.7,1.9-0.7c1.3,0,2.2,0.4,2.8,1.2
			c0.6,0.8,0.9,1.9,0.9,3.2v14.3h-4.3v-13.8c0-0.4-0.1-0.7-0.2-1c-0.1-0.3-0.4-0.5-0.8-0.5c-0.3,0-0.6,0.1-0.7,0.4
			c-0.2,0.2-0.3,0.5-0.3,0.9c0,0.3-0.1,0.7-0.1,1v13H713.4z"/>
	</g>
	<g class="st7">
		<path class="st6" d="M730,924.6c-1.2,0-2-0.3-2.4-0.8c-0.4-0.5-0.6-1.3-0.6-2.3V910h-1.2v-3.4h1.2v-3.9h4.3v3.9h1.2v3.4h-1.2v10.5
			c0,0.3,0,0.5,0.1,0.6c0.1,0.1,0.3,0.2,0.6,0.2c0.2,0,0.4,0,0.5,0v3c-0.1,0-0.4,0.1-0.9,0.2C731.1,924.6,730.6,924.6,730,924.6z"/>
	</g>
	<g class="st7">
		<path class="st6" d="M739.4,924.6c-1.3,0-2.4-0.2-3.1-0.7c-0.8-0.5-1.3-1.2-1.7-2.1c-0.3-0.9-0.5-2-0.5-3.4V911
			c0-1.7,0.5-3,1.5-3.9c1-0.9,2.3-1.3,4.1-1.3c3.5,0,5.3,1.7,5.3,5.2v1.3c0,1.6,0,2.7,0,3.3h-6.4v3.6c0,0.3,0,0.7,0.1,1
			c0,0.3,0.1,0.6,0.3,0.8c0.1,0.2,0.4,0.3,0.7,0.3c0.5,0,0.7-0.2,0.9-0.6s0.2-0.9,0.2-1.6v-1.8h4.4v1c0,1.4-0.2,2.5-0.5,3.5
			c-0.3,0.9-0.9,1.6-1.7,2.1C741.9,924.4,740.8,924.6,739.4,924.6z M738.4,913.4h2.1v-2.5c0-0.7-0.1-1.1-0.2-1.4
			c-0.2-0.3-0.4-0.4-0.7-0.4c-0.4,0-0.6,0.1-0.8,0.4s-0.3,0.8-0.3,1.5V913.4z"/>
	</g>
	<g class="st7">
		<path class="st6" d="M746.8,924.4v-18.5h4.4v2.4c0.2-0.7,0.5-1.3,0.9-1.8c0.4-0.5,1.1-0.7,1.9-0.7c1.3,0,2.2,0.4,2.8,1.2
			c0.6,0.8,0.9,1.9,0.9,3.2v14.3h-4.3v-13.8c0-0.4-0.1-0.7-0.2-1c-0.1-0.3-0.4-0.5-0.8-0.5c-0.3,0-0.6,0.1-0.7,0.4
			c-0.2,0.2-0.3,0.5-0.3,0.9c0,0.3-0.1,0.7-0.1,1v13H746.8z"/>
	</g>
	<g class="st7">
		<path class="st6" d="M764.7,924.6c-3.6,0-5.5-1.8-5.5-5.5v-1.5h4.4v2.2c0,0.4,0.1,0.7,0.2,1c0.2,0.2,0.4,0.4,0.8,0.4
			c0.6,0,1-0.5,1-1.4c0-0.8-0.2-1.4-0.5-1.8s-0.7-0.8-1.2-1.2l-2.4-1.8c-0.7-0.6-1.3-1.2-1.7-1.8c-0.4-0.6-0.6-1.5-0.6-2.7
			c0-1.1,0.3-1.9,0.8-2.6c0.5-0.7,1.2-1.2,2-1.5c0.8-0.3,1.7-0.5,2.7-0.5c3.6,0,5.4,1.8,5.4,5.4v0.3h-4.6v-0.7
			c0-0.4-0.1-0.7-0.2-1.1s-0.4-0.5-0.7-0.5c-0.6,0-0.9,0.3-0.9,1c0,0.7,0.3,1.2,0.8,1.6l2.7,2c0.9,0.6,1.6,1.3,2.2,2.2
			c0.6,0.8,0.9,2,0.9,3.4c0,1.7-0.5,3.1-1.5,4S766.4,924.6,764.7,924.6z"/>
	</g>
	<g class="st7">
		<path class="st6" d="M771.8,904.8v-3.7h4.4v3.7H771.8z M771.8,924.4v-18.5h4.4v18.5H771.8z"/>
	</g>
	<g class="st7">
		<path class="st6" d="M780.6,924.4l-3-18.5h4.4l1.1,12.3l1.2-12.3h4.4l-3,18.5H780.6z"/>
	</g>
	<g class="st7">
		<path class="st6" d="M795.3,924.6c-1.3,0-2.4-0.2-3.1-0.7c-0.8-0.5-1.3-1.2-1.7-2.1c-0.3-0.9-0.5-2-0.5-3.4V911
			c0-1.7,0.5-3,1.5-3.9c1-0.9,2.3-1.3,4.1-1.3c3.5,0,5.3,1.7,5.3,5.2v1.3c0,1.6,0,2.7,0,3.3h-6.4v3.6c0,0.3,0,0.7,0.1,1
			s0.1,0.6,0.3,0.8c0.1,0.2,0.4,0.3,0.7,0.3c0.5,0,0.7-0.2,0.9-0.6s0.2-0.9,0.2-1.6v-1.8h4.4v1c0,1.4-0.2,2.5-0.5,3.5
			c-0.3,0.9-0.9,1.6-1.7,2.1C797.8,924.4,796.7,924.6,795.3,924.6z M794.4,913.4h2.1v-2.5c0-0.7-0.1-1.1-0.2-1.4
			c-0.2-0.3-0.4-0.4-0.7-0.4c-0.4,0-0.6,0.1-0.8,0.4s-0.3,0.8-0.3,1.5V913.4z"/>
	</g>
	<g class="st7">
		<path class="st6" d="M613.2,951.9l-2.2-18.5h3.8l1.2,9.9l1.1-9.9h4.2l1.3,9.9l1-9.9h3.8l-2.3,18.5h-4.6l-1.3-10.5l-1.2,10.5H613.2
			z"/>
	</g>
	<g class="st7">
		<path class="st6" d="M629,932.3v-3.7h4.4v3.7H629z M629,951.9v-18.5h4.4v18.5H629z"/>
	</g>
	<g class="st7">
		<path class="st6" d="M639.2,952.1c-1.2,0-2-0.3-2.4-0.8c-0.4-0.5-0.6-1.3-0.6-2.3v-11.5h-1.2v-3.4h1.2v-3.9h4.3v3.9h1.2v3.4h-1.2
			V948c0,0.3,0,0.5,0.1,0.6c0.1,0.1,0.3,0.2,0.6,0.2c0.2,0,0.4,0,0.5,0v3c-0.1,0-0.4,0.1-0.9,0.2
			C640.3,952.1,639.8,952.1,639.2,952.1z"/>
	</g>
	<g class="st7">
		<path class="st6" d="M643.4,951.9v-21.7h4.5v5c0.2-0.7,0.6-1.2,1.1-1.5c0.5-0.3,1.1-0.5,1.7-0.5c1.3,0,2.2,0.4,2.8,1.2
			c0.6,0.8,0.9,1.9,0.9,3.2v14.2h-4.5v-14c0-0.4-0.1-0.7-0.3-1c-0.2-0.3-0.4-0.4-0.8-0.4c-0.3,0-0.5,0.1-0.7,0.4
			c-0.2,0.3-0.3,0.6-0.3,0.9v14H643.4z"/>
	</g>
	<g class="st7">
	</g>
	<g class="st7">
		<path class="st6" d="M667.4,952.1c-1,0-1.9-0.2-2.7-0.6c-0.8-0.4-1.4-0.9-1.9-1.7s-0.7-1.7-0.7-2.7v-5.4h4.3v5.2
			c0,0.4,0.1,0.7,0.2,0.9c0.2,0.2,0.4,0.3,0.7,0.3c0.6,0,1-0.4,1-1.2v-16.7h4.4v16.3c0,1.2-0.2,2.1-0.7,3c-0.5,0.8-1.1,1.5-1.9,1.9
			C669.4,951.9,668.4,952.1,667.4,952.1z"/>
	</g>
	<g class="st7">
		<path class="st6" d="M677.9,952.1c-1,0-1.8-0.2-2.3-0.7c-0.5-0.5-0.9-1.1-1.1-2c-0.2-0.8-0.3-1.8-0.3-2.8c0-1.1,0.1-2,0.3-2.8
			s0.6-1.3,1.1-1.8c0.5-0.5,1.3-0.9,2.2-1.2l2.7-0.9v-1.9c0-1-0.3-1.5-1-1.5c-0.6,0-0.9,0.4-0.9,1.2v1.1h-4.3c0-0.1,0-0.1,0-0.3
			c0-0.1,0-0.2,0-0.4c0-1.8,0.4-3.1,1.3-3.9c0.9-0.8,2.2-1.2,4.1-1.2c1,0,1.9,0.2,2.7,0.5c0.8,0.3,1.4,0.9,1.9,1.5
			c0.5,0.7,0.7,1.5,0.7,2.5v14.1h-4.4v-2.2c-0.2,0.8-0.6,1.4-1.1,1.8C679.1,951.9,678.5,952.1,677.9,952.1z M679.6,948.7
			c0.4,0,0.6-0.2,0.7-0.5s0.2-0.6,0.2-1v-5.2c-0.6,0.2-1.1,0.6-1.4,0.9c-0.3,0.4-0.5,0.9-0.5,1.6v2.4
			C678.7,948.2,679,948.7,679.6,948.7z"/>
	</g>
	<g class="st7">
		<path class="st6" d="M687,951.9v-18.5h4.5v2.1c0.2-0.7,0.6-1.3,1.1-1.7c0.5-0.4,1.2-0.6,2-0.6v3.7c-0.4,0-0.8,0-1.3,0.1
			c-0.5,0.1-0.9,0.2-1.3,0.3c-0.4,0.1-0.6,0.3-0.6,0.5v14.1H687z"/>
	</g>
	<g class="st7">
		<path class="st6" d="M701.1,952.1c-1.3,0-2.4-0.2-3.1-0.7c-0.8-0.5-1.3-1.2-1.7-2.1c-0.3-0.9-0.5-2-0.5-3.4v-7.4
			c0-1.7,0.5-3,1.5-3.9c1-0.9,2.3-1.3,4.1-1.3c3.5,0,5.3,1.7,5.3,5.2v1.3c0,1.6,0,2.7,0,3.3h-6.4v3.6c0,0.3,0,0.7,0.1,1
			s0.1,0.6,0.3,0.8c0.1,0.2,0.4,0.3,0.7,0.3c0.5,0,0.7-0.2,0.9-0.6s0.2-0.9,0.2-1.6v-1.8h4.4v1c0,1.4-0.2,2.5-0.5,3.5
			c-0.3,0.9-0.9,1.6-1.7,2.1C703.6,951.9,702.5,952.1,701.1,952.1z M700.2,940.9h2.1v-2.5c0-0.7-0.1-1.1-0.2-1.4
			c-0.2-0.3-0.4-0.4-0.7-0.4c-0.4,0-0.6,0.1-0.8,0.4s-0.3,0.8-0.3,1.5V940.9z"/>
	</g>
	<g class="st7">
		<path class="st6" d="M712.1,952.1c-0.9,0-1.5-0.2-2-0.5c-0.5-0.3-0.9-0.7-1.1-1.3c-0.2-0.5-0.4-1.2-0.5-1.9
			c-0.1-0.7-0.1-1.5-0.1-2.4v-8c0-1.4,0.3-2.6,0.8-3.5c0.5-0.9,1.4-1.3,2.6-1.3c0.9,0,1.6,0.2,2.1,0.6s0.9,0.9,1.1,1.6v-5.2h4.5
			v21.7h-4.5v-2c-0.2,0.7-0.6,1.2-1,1.6C713.5,952,712.9,952.1,712.1,952.1z M713.8,948.7c0.4,0,0.7-0.2,0.8-0.5
			c0.1-0.3,0.2-0.9,0.2-1.8v-7.8c0-0.4-0.1-0.9-0.2-1.3c-0.1-0.4-0.4-0.6-0.8-0.6c-0.5,0-0.8,0.2-0.9,0.6c-0.1,0.4-0.2,0.8-0.2,1.3
			v7.8C712.8,947.9,713.1,948.7,713.8,948.7z"/>
	</g>
	<g class="st7">
	</g>
	<g class="st7">
		<path class="st6" d="M732.7,952.1c-2,0-3.4-0.5-4.3-1.5c-0.9-1-1.3-2.6-1.3-4.7v-2.1h4.3v2.7c0,0.5,0.1,0.9,0.2,1.2
			s0.4,0.4,0.8,0.4c0.4,0,0.7-0.1,0.8-0.3c0.2-0.2,0.2-0.6,0.2-1.1c0-0.7-0.1-1.2-0.2-1.7c-0.1-0.4-0.4-0.9-0.7-1.3
			c-0.3-0.4-0.8-0.9-1.3-1.4l-1.9-1.8c-1.5-1.4-2.2-2.9-2.2-4.7c0-1.8,0.4-3.3,1.3-4.2c0.9-1,2.1-1.5,3.7-1.5c2,0,3.4,0.5,4.2,1.6
			c0.8,1.1,1.2,2.7,1.2,4.8h-4.4V935c0-0.3-0.1-0.5-0.3-0.7c-0.2-0.2-0.4-0.2-0.7-0.2c-0.3,0-0.6,0.1-0.8,0.3
			c-0.2,0.2-0.2,0.4-0.2,0.7s0.1,0.6,0.2,1c0.2,0.4,0.5,0.8,1,1.2l2.5,2.4c0.5,0.5,1,1,1.4,1.5c0.4,0.5,0.8,1.1,1,1.8
			c0.3,0.7,0.4,1.6,0.4,2.6c0,2-0.4,3.6-1.1,4.8C735.9,951.6,734.6,952.1,732.7,952.1z"/>
	</g>
	<g class="st7">
		<path class="st6" d="M739.4,955v-21.6h4.5v2c0.3-0.7,0.6-1.2,1.1-1.6s1.2-0.6,2.1-0.6c1.2,0,2.1,0.4,2.6,1.3s0.7,2,0.7,3.5v9.1
			c0,0.9-0.1,1.8-0.4,2.6c-0.3,0.8-0.7,1.4-1.3,1.8s-1.3,0.7-2.2,0.7c-1.2,0-2.1-0.7-2.6-2.2v5.1H739.4z M744.9,948.7
			c0.5,0,0.7-0.2,0.8-0.7c0.1-0.5,0.1-1,0.1-1.7v-7.2c0-0.7,0-1.3-0.1-1.7c-0.1-0.5-0.4-0.7-0.8-0.7c-0.5,0-0.8,0.2-0.9,0.7
			c-0.1,0.5-0.2,1-0.2,1.7v7.2c0,0.7,0.1,1.2,0.2,1.7C744.1,948.5,744.4,948.7,744.9,948.7z"/>
	</g>
	<g class="st7">
		<path class="st6" d="M757.6,952.1c-3.7,0-5.5-1.9-5.5-5.7V939c0-1.7,0.5-3.1,1.5-4.2s2.3-1.6,4.1-1.6c1.7,0,3.1,0.5,4.1,1.6
			s1.5,2.4,1.5,4.2v7.4C763.1,950.2,761.3,952.1,757.6,952.1z M757.6,948.7c0.4,0,0.6-0.1,0.8-0.4s0.2-0.6,0.2-1v-9
			c0-1.1-0.3-1.6-1-1.6c-0.7,0-1,0.5-1,1.6v9c0,0.4,0.1,0.8,0.2,1S757.2,948.7,757.6,948.7z"/>
	</g>
	<g class="st7">
		<path class="st6" d="M770.4,952.1c-3.7,0-5.5-1.9-5.5-5.7V939c0-1.7,0.5-3.1,1.5-4.2c1-1,2.3-1.6,4.1-1.6c1.7,0,3.1,0.5,4.1,1.6
			c1,1,1.5,2.4,1.5,4.2v7.4C775.9,950.2,774.1,952.1,770.4,952.1z M770.4,948.7c0.4,0,0.6-0.1,0.8-0.4s0.2-0.6,0.2-1v-9
			c0-1.1-0.3-1.6-1-1.6c-0.7,0-1,0.5-1,1.6v9c0,0.4,0.1,0.8,0.2,1S770,948.7,770.4,948.7z"/>
	</g>
	<g class="st7">
		<path class="st6" d="M777.8,951.9v-21.7h4.5v21.7H777.8z"/>
	</g>
</g>
<g>
	<g>
		<defs>
			<circle id="SVGID_13_" cx="-699.7" cy="490.3" r="99.3"/>
		</defs>
		<clipPath id="SVGID_14_">
			<use xlink:href="#SVGID_13_"  style="overflow:visible;"/>
		</clipPath>
		<g class="st8">
			<defs>
				<rect id="SVGID_15_" x="-824.8" y="365.2" width="250.2" height="250.2"/>
			</defs>
			<clipPath id="SVGID_16_">
				<use xlink:href="#SVGID_15_"  style="overflow:visible;"/>
			</clipPath>
			<g class="st9">
				<defs>
					<rect id="SVGID_17_" x="-848.7" y="391" width="298.3" height="198.7"/>
				</defs>
				<clipPath id="SVGID_18_">
					<use xlink:href="#SVGID_17_"  style="overflow:visible;"/>
				</clipPath>
				<g transform="matrix(1 0 0 1 0 3.051758e-05)" style="clip-path:url(#SVGID_18_);">
					
						<image style="overflow:visible;" width="2117" height="1411" xlink:href="6EC60AD2.jpg"  transform="matrix(0.1409 0 0 0.1408 -848.6963 390.9907)">
					</image>
				</g>
			</g>
		</g>
	</g>
	<path class="st6" d="M-699.7,595c-57.8,0-104.7-47-104.7-104.7s47-104.7,104.7-104.7c57.8,0,104.7,47,104.7,104.7
		S-641.9,595-699.7,595z M-699.7,365.2c-69,0-125.1,56.2-125.1,125.1s56.1,125.1,125.1,125.1c69,0,125.1-56.1,125.1-125.1
		C-574.5,421.3-630.6,365.2-699.7,365.2z"/>
	<g>
		<defs>
			<rect id="SVGID_19_" x="-808.6" y="318.5" width="122.2" height="122.2"/>
		</defs>
		<clipPath id="SVGID_20_">
			<use xlink:href="#SVGID_19_"  style="overflow:visible;"/>
		</clipPath>
		<g class="st10">
			<defs>
				<rect id="SVGID_21_" x="-808.6" y="318.5" width="122.2" height="122.2"/>
			</defs>
			<clipPath id="SVGID_22_">
				<use xlink:href="#SVGID_21_"  style="overflow:visible;"/>
			</clipPath>
			<g transform="matrix(1 0 0 1 6.103516e-05 0)" style="clip-path:url(#SVGID_22_);">
				
					<image style="overflow:visible;" width="640" height="640" xlink:href="6EC60AD3.png"  transform="matrix(0.191 0 0 0.191 -808.5925 318.5488)">
				</image>
			</g>
		</g>
	</g>
</g>
<g>
	<g>
		<path class="st6" d="M0.2,130.7V0.5h34.4c7.2,0,12.9,1.6,17.1,4.8c4.2,3.2,7.2,7.8,9.1,13.7c1.8,5.9,2.7,13,2.7,21.2
			c0,7.9-0.8,14.8-2.3,20.6c-1.5,5.8-4.3,10.4-8.2,13.6c-3.9,3.2-9.5,4.8-16.7,4.8H25.8v51.6H0.2z M25.8,55.8h1.5
			c4.8,0,7.8-1.4,8.9-4.1c1.1-2.7,1.6-6.7,1.6-12c0-4.9-0.5-8.7-1.6-11.4c-1.1-2.7-3.6-4-7.5-4h-2.9V55.8z"/>
		<path class="st6" d="M71.7,130.7V0.5h52.1v25.1H98.2V51h24.6v24.5H98.2v29.8h27.3v25.4H71.7z"/>
		<path class="st6" d="M134.1,130.7V0.5H174c6.7,0,11.7,1.5,15.1,4.5c3.4,3,5.7,7.3,6.8,12.7c1.2,5.4,1.7,11.8,1.7,19.2
			c0,7.1-0.9,12.8-2.7,17c-1.8,4.2-5.2,7.2-10.2,8.8c4.1,0.8,7,2.9,8.6,6.1c1.7,3.2,2.5,7.4,2.5,12.5v49.3h-25.7v-51
			c0-3.8-0.8-6.2-2.3-7.1c-1.6-0.9-4.1-1.4-7.5-1.4v59.4H134.1z M160.6,48.7h6.3c3.6,0,5.4-3.9,5.4-11.8c0-5.1-0.4-8.4-1.2-10
			c-0.8-1.6-2.3-2.4-4.4-2.4h-6.1V48.7z"/>
		<path class="st6" d="M237.2,131.9c-11.9,0-20.5-3-25.7-8.9c-5.3-5.9-7.9-15.3-7.9-28.3V82h25.7v16.3c0,3,0.5,5.4,1.4,7.1
			c0.9,1.7,2.5,2.6,4.8,2.6c2.4,0,4-0.7,4.9-2.1c0.9-1.4,1.4-3.6,1.4-6.8c0-4-0.4-7.3-1.2-10c-0.8-2.7-2.2-5.3-4.1-7.7
			c-1.9-2.4-4.6-5.3-8.1-8.5l-11.7-11.1c-8.7-8.2-13.1-17.7-13.1-28.3c0-11.1,2.6-19.6,7.7-25.4c5.2-5.8,12.6-8.7,22.4-8.7
			c11.9,0,20.4,3.2,25.4,9.5c5,6.4,7.5,16,7.5,29h-26.5v-9c0-1.8-0.5-3.2-1.5-4.1c-1-1-2.4-1.5-4.1-1.5c-2.1,0-3.6,0.6-4.5,1.7
			c-1,1.2-1.4,2.7-1.4,4.5c0,1.8,0.5,3.8,1.5,5.9c1,2.1,2.9,4.6,5.8,7.3l15,14.4c3,2.9,5.8,5.9,8.3,9.1c2.5,3.2,4.5,6.9,6.1,11.1
			c1.5,4.2,2.3,9.4,2.3,15.4c0,12.2-2.3,21.8-6.8,28.7C256.3,128.4,248.4,131.9,237.2,131.9z"/>
		<path class="st6" d="M306.3,131.9c-10.8,0-18.8-3-24-9.1c-5.1-6.1-7.7-15.1-7.7-26.9V0.5h25.3v94.3c0,2.2,0.1,4.3,0.4,6.3
			c0.2,2,0.8,3.6,1.7,4.9c0.9,1.3,2.3,1.9,4.3,1.9c2,0,3.5-0.6,4.4-1.9c0.9-1.3,1.4-2.9,1.7-4.9c0.2-2,0.3-4.1,0.3-6.3V0.5H338v95.3
			c0,11.8-2.6,20.8-7.7,26.9C325.1,128.8,317.1,131.9,306.3,131.9z"/>
		<path class="st6" d="M344.4,130.7L357,0.5h44.2l12.4,130.2h-24.6l-1.8-21h-15.7l-1.6,21H344.4z M373.2,88.9H385l-5.7-66.2h-1.2
			L373.2,88.9z"/>
		<path class="st6" d="M452.4,131.9c-11.9,0-20.5-3-25.7-8.9c-5.3-5.9-7.9-15.3-7.9-28.3V82h25.7v16.3c0,3,0.5,5.4,1.4,7.1
			c0.9,1.7,2.5,2.6,4.8,2.6c2.4,0,4-0.7,4.9-2.1c0.9-1.4,1.4-3.6,1.4-6.8c0-4-0.4-7.3-1.2-10c-0.8-2.7-2.2-5.3-4.1-7.7
			c-1.9-2.4-4.6-5.3-8.1-8.5l-11.7-11.1c-8.7-8.2-13.1-17.7-13.1-28.3c0-11.1,2.6-19.6,7.7-25.4c5.2-5.8,12.6-8.7,22.4-8.7
			c11.9,0,20.4,3.2,25.4,9.5c5,6.4,7.5,16,7.5,29h-26.5v-9c0-1.8-0.5-3.2-1.5-4.1c-1-1-2.4-1.5-4.1-1.5c-2.1,0-3.6,0.6-4.5,1.7
			c-1,1.2-1.4,2.7-1.4,4.5c0,1.8,0.5,3.8,1.5,5.9c1,2.1,2.9,4.6,5.8,7.3l15,14.4c3,2.9,5.8,5.9,8.3,9.1c2.5,3.2,4.5,6.9,6.1,11.1
			c1.5,4.2,2.3,9.4,2.3,15.4c0,12.2-2.3,21.8-6.8,28.7C471.4,128.4,463.6,131.9,452.4,131.9z"/>
		<path class="st6" d="M490.2,130.7V0.5h25.1v130.2H490.2z"/>
		<path class="st6" d="M537.7,130.7L521.6,0.4h24.8l9.5,88.6l8.5-88.6h24.8l-16.1,130.3H537.7z"/>
		<path class="st6" d="M596.8,130.7V0.5h52.1v25.1h-25.6V51h24.6v24.5h-24.6v29.8h27.3v25.4H596.8z"/>
	</g>
	<g>
		<path class="st6" d="M31.6,282.2c-10.7,0-18.7-3-23.7-9.1c-5.1-6-7.6-14.9-7.6-26.6v-94.5h25.1v93.4c0,2.1,0.1,4.2,0.4,6.2
			c0.2,2,0.8,3.6,1.7,4.9c0.9,1.3,2.3,1.9,4.3,1.9c2,0,3.4-0.6,4.3-1.9c0.9-1.2,1.4-2.9,1.6-4.9c0.2-2,0.3-4.1,0.3-6.2v-93.4H63
			v94.5c0,11.7-2.5,20.6-7.6,26.6C50.3,279.2,42.3,282.2,31.6,282.2z"/>
		<path class="st6" d="M69.1,281.1L83,212.7L72,152h25.2l6.7,44.3l5.9-44.3h25.3l-11,60.7l13.8,68.4h-26.1l-8.1-50.4l-8.4,50.4H69.1
			z"/>
		<path class="st6" d="M180.7,281.1v-129h39.3l10.8,78.6l10.8-78.6h39.6v129h-23.6v-92.9l-14.8,92.9h-23.2L204,188.1v92.9H180.7z"/>
		<path class="st6" d="M292.6,281.1v-129h51.6V177h-25.4v25.1h24.3v24.3h-24.3v29.5h27v25.1H292.6z"/>
		<path class="st6" d="M365.5,281.1V176.9h-15.3v-24.8h56.4v24.8h-15.3v104.2H365.5z"/>
		<path class="st6" d="M413.8,281.1v-129h39.6c6.6,0,11.6,1.5,14.9,4.5s5.6,7.2,6.8,12.6c1.1,5.4,1.7,11.7,1.7,19
			c0,7-0.9,12.7-2.7,16.9c-1.8,4.2-5.1,7.1-10.1,8.7c4.1,0.8,6.9,2.8,8.5,6c1.6,3.2,2.5,7.3,2.5,12.4v48.8h-25.4v-50.5
			c0-3.8-0.8-6.1-2.3-7c-1.5-0.9-4-1.4-7.4-1.4v58.8H413.8z M440,199.9h6.2c3.6,0,5.3-3.9,5.3-11.7c0-5-0.4-8.3-1.2-9.9
			c-0.8-1.6-2.2-2.3-4.4-2.3h-6V199.9z"/>
		<path class="st6" d="M484.1,281.1v-129H509v129H484.1z"/>
		<path class="st6" d="M549.3,282.2c-9.3,0-16.8-2.9-22.5-8.7c-5.7-5.8-8.5-13.9-8.5-24.4v-59.5c0-12.5,2.5-22.1,7.4-28.7
			c5-6.6,13-10,24.2-10c6.1,0,11.5,1.1,16.3,3.4c4.8,2.2,8.5,5.6,11.2,10.1c2.7,4.5,4.1,10.1,4.1,16.9v22.3h-25.6v-19.1
			c0-3.9-0.5-6.5-1.5-7.8c-1-1.3-2.5-2-4.5-2c-2.4,0-4,0.9-4.8,2.6c-0.8,1.7-1.2,4-1.2,6.9v64.6c0,3.6,0.5,6.1,1.6,7.5
			c1.1,1.5,2.6,2.2,4.5,2.2c2.2,0,3.7-0.9,4.7-2.7c0.9-1.8,1.4-4.2,1.4-7v-23.2h25.9v24.4c0,11.3-2.9,19.6-8.6,24.7
			C567.6,279.7,559.6,282.2,549.3,282.2z"/>
		<path class="st6" d="M621.1,282.2c-11.8,0-20.3-2.9-25.5-8.8c-5.2-5.9-7.8-15.2-7.8-28v-12.6h25.5V249c0,3,0.5,5.3,1.4,7
			c0.9,1.7,2.5,2.5,4.7,2.5c2.3,0,4-0.7,4.9-2.1c0.9-1.4,1.4-3.6,1.4-6.7c0-4-0.4-7.3-1.2-9.9c-0.8-2.7-2.1-5.2-4.1-7.6
			c-1.9-2.4-4.6-5.2-8-8.5l-11.6-11c-8.6-8.2-13-17.5-13-28c0-11,2.6-19.4,7.7-25.1c5.1-5.8,12.5-8.6,22.2-8.6
			c11.8,0,20.2,3.2,25.2,9.5c5,6.3,7.4,15.9,7.4,28.7H624v-8.9c0-1.8-0.5-3.1-1.5-4.1c-1-1-2.4-1.5-4.1-1.5c-2.1,0-3.6,0.6-4.5,1.7
			c-1,1.1-1.4,2.6-1.4,4.4c0,1.8,0.5,3.8,1.5,5.9c1,2.1,2.9,4.5,5.8,7.3l14.9,14.3c3,2.8,5.7,5.8,8.2,9c2.5,3.2,4.5,6.8,6,11
			c1.5,4.2,2.3,9.3,2.3,15.3c0,12.1-2.2,21.6-6.7,28.5C639.9,278.8,632.2,282.2,621.1,282.2z"/>
	</g>
	<g>
		<path class="st6" d="M16.9,370.7c-6.1,0-10.4-1.5-13.1-4.5c-2.7-3-4-7.8-4-14.4v-6.5h13.1v8.3c0,1.5,0.2,2.7,0.7,3.6
			c0.5,0.9,1.3,1.3,2.4,1.3c1.2,0,2-0.4,2.5-1.1c0.5-0.7,0.7-1.9,0.7-3.5c0-2-0.2-3.7-0.6-5.1c-0.4-1.4-1.1-2.7-2.1-3.9
			c-1-1.2-2.4-2.7-4.1-4.4l-6-5.7c-4.5-4.2-6.7-9-6.7-14.4c0-5.7,1.3-10,3.9-12.9c2.6-3,6.4-4.5,11.4-4.5c6.1,0,10.4,1.6,13,4.9
			s3.8,8.2,3.8,14.8H18.5v-4.6c0-0.9-0.3-1.6-0.8-2.1c-0.5-0.5-1.2-0.8-2.1-0.8c-1.1,0-1.8,0.3-2.3,0.9c-0.5,0.6-0.7,1.4-0.7,2.3
			c0,0.9,0.3,1.9,0.8,3c0.5,1.1,1.5,2.3,3,3.7l7.7,7.4c1.5,1.5,2.9,3,4.2,4.6s2.3,3.5,3.1,5.7c0.8,2.2,1.2,4.8,1.2,7.9
			c0,6.2-1.2,11.1-3.5,14.7S22.7,370.7,16.9,370.7z"/>
		<path class="st6" d="M36.8,370.1v-66.4h13.2v23.7h6.3v-23.7h13.2v66.4H56.3v-30.1h-6.3v30.1H36.8z"/>
		<path class="st6" d="M91.3,370.7c-5.3,0-9.4-1.6-12.2-4.8c-2.8-3.2-4.2-7.8-4.2-13.9v-31.6c0-5.7,1.4-10,4.2-12.9
			c2.8-2.9,6.9-4.4,12.2-4.4s9.4,1.5,12.2,4.4c2.8,2.9,4.2,7.3,4.2,12.9v31.6c0,6.1-1.4,10.7-4.2,13.9
			C100.6,369.1,96.6,370.7,91.3,370.7z M91.4,358.4c2,0,3-2,3-5.9v-32.4c0-3.3-1-4.9-2.9-4.9c-2.2,0-3.3,1.7-3.3,5v32.4
			c0,2.1,0.3,3.5,0.8,4.4C89.4,358,90.2,358.4,91.4,358.4z"/>
		<path class="st6" d="M118.2,370.1l-7.1-66.4h13l3.7,41.9l3.7-41.9h12.4l3.5,41.9l3.5-41.9h13.1l-7.2,66.4h-15.9l-3.3-32l-3.2,32
			H118.2z"/>
		<path class="st6" d="M191.9,370.1v-53.7H184v-12.8H213v12.8h-7.9v53.7H191.9z"/>
		<path class="st6" d="M216.7,370.1v-66.4H230v23.7h6.3v-23.7h13.2v66.4h-13.2v-30.1H230v30.1H216.7z"/>
		<path class="st6" d="M255.3,370.1v-66.4h26.6v12.8h-13.1v12.9h12.5v12.5h-12.5v15.2h13.9v12.9H255.3z"/>
		<path class="st6" d="M311.4,370.1l-8.2-66.5h12.6l4.9,45.2l4.3-45.2h12.6l-8.2,66.5H311.4z"/>
		<path class="st6" d="M338.1,370.1l6.4-66.4h22.5l6.3,66.4h-12.6l-0.9-10.7h-8l-0.8,10.7H338.1z M352.8,348.7h6l-2.9-33.8h-0.6
			L352.8,348.7z"/>
		<path class="st6" d="M377.5,370.1v-66.4h13.3v55.1h13.7v11.3H377.5z"/>
		<path class="st6" d="M423.6,370.7c-5.5,0-9.6-1.6-12.2-4.7c-2.6-3.1-3.9-7.7-3.9-13.7v-48.7h12.9v48.1c0,1.1,0.1,2.2,0.2,3.2
			c0.1,1,0.4,1.9,0.9,2.5c0.5,0.7,1.2,1,2.2,1c1,0,1.8-0.3,2.2-1s0.7-1.5,0.8-2.5c0.1-1,0.2-2.1,0.2-3.2v-48.1h12.9v48.7
			c0,6-1.3,10.6-3.9,13.7C433.2,369.1,429.1,370.7,423.6,370.7z"/>
		<path class="st6" d="M444.8,370.1v-66.4h26.6v12.8h-13.1v12.9h12.5v12.5h-12.5v15.2h13.9v12.9H444.8z"/>
		<path class="st6" d="M510.6,370.7c-5.3,0-9.4-1.6-12.2-4.8c-2.8-3.2-4.2-7.8-4.2-13.9v-31.6c0-5.7,1.4-10,4.2-12.9
			c2.8-2.9,6.9-4.4,12.2-4.4c5.4,0,9.4,1.5,12.2,4.4c2.8,2.9,4.2,7.3,4.2,12.9v31.6c0,6.1-1.4,10.7-4.2,13.9
			C520,369.1,515.9,370.7,510.6,370.7z M510.7,358.4c2,0,3-2,3-5.9v-32.4c0-3.3-1-4.9-2.9-4.9c-2.2,0-3.3,1.7-3.3,5v32.4
			c0,2.1,0.3,3.5,0.8,4.4C508.7,358,509.6,358.4,510.7,358.4z"/>
		<path class="st6" d="M532.3,370.1v-66.4h26.6v12.9h-13.2v10.6h12.5v12.8h-12.5v30.1H532.3z"/>
		<path class="st6" d="M596.7,370.7c-5.5,0-9.6-1.6-12.2-4.7c-2.6-3.1-3.9-7.7-3.9-13.7v-48.7h12.9v48.1c0,1.1,0.1,2.2,0.2,3.2
			c0.1,1,0.4,1.9,0.9,2.5c0.5,0.7,1.2,1,2.2,1c1,0,1.8-0.3,2.2-1s0.7-1.5,0.8-2.5c0.1-1,0.2-2.1,0.2-3.2v-48.1h12.9v48.7
			c0,6-1.3,10.6-3.9,13.7C606.3,369.1,602.2,370.7,596.7,370.7z"/>
		<path class="st6" d="M616,370.1l7.1-35.2l-5.7-31.3h13l3.4,22.8l3.1-22.8h13l-5.7,31.3l7.1,35.2H638l-4.2-26l-4.3,26H616z"/>
	</g>
</g>
</svg>
